/* XPM */
static char *_c5b57111e164f2e8219a62086c945c1XmxcNLl9ju61D9mj[] = {
/* columns rows colors chars-per-pixel */
"36 40 161 2 ",
"   c None",
".  c #6C5422",
"X  c #745E2A",
"o  c #7B6021",
"O  c #75632E",
"+  c #84641F",
"@  c #AF6D03",
"#  c #B36E01",
"$  c #B37303",
"%  c #BA7401",
"&  c #B57A06",
"*  c #BB7A02",
"=  c #B47A09",
"-  c #BC7D0B",
";  c #A27416",
":  c #AA7416",
">  c #A07518",
",  c #A1781F",
"<  c #A87B1E",
"1  c #B67911",
"2  c #826E2D",
"3  c #84702C",
"4  c #8C7329",
"5  c #957224",
"6  c #9B7A25",
"7  c #997B2D",
"8  c #8B7432",
"9  c #8C7838",
"0  c #937B34",
"q  c #AE7E22",
"w  c #A47B28",
"e  c #A17F31",
"r  c #C27C02",
"t  c #C27C0A",
"y  c #C07C10",
"u  c #BA8206",
"i  c #BF8A07",
"p  c #BB8309",
"a  c #AF821C",
"s  c #B9841B",
"d  c #BC891F",
"f  c #9C8037",
"g  c #9D8338",
"h  c #AE8127",
"j  c #AF8826",
"k  c #AE882E",
"l  c #B78623",
"z  c #B78B25",
"x  c #BD8B25",
"c  c #B5902F",
"v  c #BB922E",
"b  c #A58531",
"n  c #AA8730",
"m  c #A58832",
"M  c #AD8E35",
"N  c #A38A3A",
"B  c #AB8E3B",
"V  c #B48E33",
"C  c #A6903D",
"Z  c #B49234",
"A  c #B99031",
"S  c #B6983E",
"D  c #C68205",
"F  c #C88106",
"G  c #C5840A",
"H  c #C9860B",
"J  c #C58A0B",
"K  c #CB8B0C",
"L  c #D08708",
"P  c #D28D0A",
"I  c #C59707",
"U  c #CC9701",
"Y  c #C79907",
"T  c #CA9C06",
"R  c #C39308",
"E  c #CB910A",
"W  c #C79A08",
"Q  c #CB9C09",
"!  c #D5910D",
"~  c #DA950F",
"^  c #D39C0A",
"/  c #DE9C0E",
"(  c #C68511",
")  c #C68913",
"_  c #C98A11",
"`  c #C38C1A",
"'  c #C88F19",
"]  c #D68D10",
"[  c #D88E11",
"{  c #C6911F",
"}  c #DB9311",
"|  c #DD9810",
" . c #E09E0F",
".. c #CCA206",
"X. c #D2A407",
"o. c #D3AB06",
"O. c #DDAE06",
"+. c #D7A30A",
"@. c #DCA20B",
"#. c #DAA909",
"$. c #D6B307",
"%. c #DBBB05",
"&. c #E1A30E",
"*. c #E3AB0C",
"=. c #E0B706",
"-. c #E4B902",
";. c #E8BE01",
":. c #E6B20B",
">. c #EABE09",
",. c #C28624",
"<. c #C28E25",
"1. c #C08E2B",
"2. c #C49223",
"3. c #DEC204",
"4. c #DFC208",
"5. c #E2C405",
"6. c #EAC303",
"7. c #E5CB04",
"8. c #EDCA05",
"9. c #EBC408",
"0. c #F2CE07",
"q. c #EAD204",
"w. c #EEDB03",
"e. c #F2D206",
"r. c #F4DD03",
"t. c #F8DC05",
"y. c #F4E203",
"u. c #F8E204",
"i. c #F6EA02",
"p. c #FDEE01",
"a. c #FFF300",
"s. c #FFFA00",
"d. c #FEF20A",
"f. c #FFF212",
"g. c #FFF812",
"h. c #FEF21C",
"j. c #FEF327",
"k. c #FEF12B",
"l. c #FEF334",
"z. c #FFF738",
"x. c #8D8445",
"c. c #928441",
"v. c #B29742",
"b. c #FFF649",
"n. c #FFF554",
"m. c #FEF459",
"M. c #FFF762",
"N. c #FEF868",
"B. c #FFFE74",
"V. c #FFF87D",
"C. c #FFFA96",
"Z. c #FFFD9F",
"A. c #FEF89C",
"S. c #FFFBB1",
"D. c #FFFCB6",
"F. c #FEF9BC",
"G. c #FFFBC0",
"H. c #FFFCCE",
"J. c #FFFDEB",
"K. c #FFFFF5",
"L. c #FEFCF2",
/* pixels */
"                                                                        ",
"                                . O O X                                 ",
"                        3 : H +.-.6.8.;.O.K 1 5                         ",
"                    4 ( D %.i.s.s.s.s.s.s.i.7.U t <                     ",
"                  d % ..i.s.z.A.F.g.s.p.s.a.s.s.3.* ( 2                 ",
"                ( $ %.s.h.A.L.L.B.5.Q &.:.r.s.p.s.y.- r 7               ",
"              _ $ 4.s.k.F.J.Z.j.U $ % - P } >.s.a.s.i.u r 0             ",
"            ` # $.s.h.S.H.N.s.Y % a 0 r - ~ [ >.a.p.s.y.$ F             ",
"          M % R s.d.V.D.n.s.o.@ '     b * u ~ ~ q.s.p.s.5.@ '           ",
"          F $ y.s.l.C.m.s.q.@ H         x $ K ~ @.p.a.p.s.I # M         ",
"        z # o.s.p.n.M.d.s.J % N           F & ! [ 0.s.p.s.w.$ H         ",
"        G $ y.s.d.b.h.s.7.# )             V $ G } *.p.a.p.s.I % M       ",
"      Z # Q s.a.h.j.p.s.R % m               F & ! } r.s.p.s.7.# _       ",
"      ) # 7.s.p.f.f.s.y.$ G                 <.$ K } 8.s.a.a.a.u r c.    ",
"      r = i.a.p.d.p.s.%.# `                 e * p } :.a.a.a.s...# V     ",
"    C % R s.a.a.a.p.s.T # Z                   D = P &.r.s.a.s.%.# `     ",
"    z # o.s.p.a.p.a.a.i r 8                   ( & P  .e.s.p.s.w.# H     ",
"    { @ %.s.p.a.a.s.y.= r                     2.$ K / 9.s.p.s.y.& r     ",
"    _ $ 5.s.a.a.p.s.w.$ G                     v $ J / 9.s.p.p.p.u r x.  ",
"    ) @ 7.s.p.a.p.s.q.# _                     q * J / 9.s.a.a.a.i r 0   ",
"    _ $ ;.s.a.a.a.s.q.@ _                     l % J &.8.s.p.a.s.i * 0   ",
"    _ @ =.s.p.a.p.s.q.$ )                     q * K *.0.s.p.p.a.i r 0   ",
"    _ $ +.s.a.a.p.s.w.$ G                     ,.$ E >.t.s.p.a.p.u r c.  ",
"    { $ K p.a.p.p.s.y.= r                     2.$ Q 0.i.a.p.s.i.= r     ",
"    l & G 0.s.p.a.a.a.u r 0                   ) $ #.t.a.p.p.s.w.# G     ",
"    v.* - :.s.p.a.p.s.I # S                   F $ 6.p.a.a.p.s.5.# '     ",
"    x.r & ~ u.s.p.a.s.%.# `                 g % i t.p.a.a.p.s...# v     ",
"      ( $ H >.a.p.a.s.r.$ G                 <.# X.p.p.a.a.s.a.p r c.    ",
"      A % G | y.a.a.p.s.R % B               G $ 8.a.a.a.p.s.q.# _       ",
"        r - P :.s.a.p.s.5.@ )             M % R s.p.a.a.p.s.T # A       ",
"        <.$ H } 0.s.a.a.s.i * N           H $ q.s.p.a.p.s.r.$ H         ",
"          D = ! } r.s.p.s.7.@ H         x # ..s.p.a.a.a.s.T # Z         ",
"          A % G } @.i.s.p.s.o.# `     7 r u p.a.a.a.p.s.5.# )           ",
"            ) $ K }  .p.s.p.s.T # j f r = y.s.p.a.p.s.r.& r 9           ",
"              K $ E } | r.s.a.s...$ % - w.s.p.p.a.s.y.u r n             ",
"                H & P } [ >.i.s.s.%...i.s.p.s.s.s.7.- r n               ",
"                  ' * H } ~ / >.r.s.s.s.s.d.p.0.^ % G 7                 ",
"                    w G F K ! [ ~  .*.:.*.&.P t r s                     ",
"                        5 = H P L P P L H F p ;                         ",
"                              o 5 w ; 6 +                               "
};
