/* XPM */
static char *_ed98234007d48e285d392a053d6bd8djJazMU1eploEuJqj[] = {
/* columns rows colors chars-per-pixel */
"40 40 207 2 ",
"   c #5E4A4C",
".  c #624E50",
"X  c #635258",
"o  c #65545A",
"O  c #68575D",
"+  c #6A595F",
"@  c #6F5B5D",
"#  c #705C5E",
"$  c #6B5A60",
"%  c #6B5C63",
"&  c #6E5D63",
"*  c #6D5E65",
"=  c #725E60",
"-  c #705F65",
";  c #6F6067",
":  c #746062",
">  c #756163",
",  c #716066",
"<  c #726167",
"1  c #766264",
"2  c #776365",
"3  c #796567",
"4  c #716269",
"5  c #736268",
"6  c #746369",
"7  c #75646A",
"8  c #76656B",
"9  c #74656C",
"0  c #77666C",
"q  c #76676E",
"w  c #7A6668",
"e  c #7B6769",
"r  c #78676D",
"t  c #77686F",
"y  c #7D696B",
"u  c #79686E",
"i  c #7A696F",
"p  c #786970",
"a  c #796A71",
"s  c #7B6A70",
"d  c #7A6B72",
"f  c #7C6B71",
"g  c #7B6C73",
"h  c #7D6C72",
"j  c #7E6D73",
"k  c #7C6D74",
"l  c #7D6E75",
"z  c #7F6E74",
"x  c #7E6F76",
"c  c #7F7077",
"v  c #806C6E",
"b  c #826E70",
"n  c #806F75",
"m  c #846F74",
"M  c #817076",
"N  c #827177",
"B  c #867176",
"V  c #807178",
"C  c #817279",
"Z  c #837278",
"A  c #82737A",
"S  c #847379",
"D  c #83747B",
"F  c #85747A",
"G  c #86757B",
"H  c #84757C",
"J  c #85767D",
"K  c #87767C",
"L  c #86777E",
"P  c #88777D",
"I  c #87787F",
"U  c #89787E",
"Y  c #8A797F",
"T  c #8C7C7F",
"R  c #887980",
"E  c #897A81",
"W  c #8B7A80",
"Q  c #8A7B82",
"!  c #8C7B81",
"~  c #8E7E81",
"^  c #8D7C82",
"/  c #8E7D83",
"(  c #8C7D84",
")  c #8F7E84",
"_  c #8E7F86",
"`  c #917C81",
"'  c #927D82",
"]  c #937E83",
"[  c #907F85",
"{  c #947F84",
"}  c #918086",
"|  c #928187",
" . c #938288",
".. c #948389",
"X. c #93848B",
"o. c #95848A",
"O. c #96858B",
"+. c #94858C",
"@. c #95868D",
"#. c #97868C",
"$. c #96878E",
"%. c #988388",
"&. c #9A858A",
"*. c #9B868B",
"=. c #98878D",
"-. c #9C878C",
";. c #97888F",
":. c #99888E",
">. c #9A898F",
",. c #9E898E",
"<. c #988990",
"1. c #9B8A90",
"2. c #9A8B92",
"3. c #9C8B91",
"4. c #9E8E91",
"5. c #9D8C92",
"6. c #9E8D93",
"7. c #9F8E94",
"8. c #9E8F96",
"9. c #A08B90",
"0. c #A08F95",
"q. c #A09093",
"w. c #A19096",
"e. c #A29197",
"r. c #A39396",
"t. c #A49497",
"y. c #A09198",
"u. c #A19299",
"i. c #A39298",
"p. c #A2939A",
"a. c #A49399",
"s. c #A3949B",
"d. c #A59598",
"f. c #A69699",
"g. c #A5949A",
"h. c #A6959B",
"j. c #A7969C",
"k. c #A8979D",
"l. c #A7989F",
"z. c #A9999C",
"x. c #AA9A9D",
"c. c #A9989E",
"v. c #AA999F",
"b. c #AB9B9E",
"n. c #A99AA1",
"m. c #AB9AA0",
"M. c #AA9BA2",
"N. c #AC9BA1",
"B. c #AD9DA0",
"V. c #AE9EA1",
"C. c #AD9CA2",
"Z. c #AE9DA3",
"A. c #AF9FA2",
"S. c #AF9EA4",
"D. c #B09FA5",
"F. c #B1A0A6",
"G. c #B2A1A7",
"H. c #B0A1A8",
"J. c #B3A2A8",
"K. c #B2A3AA",
"L. c #B4A3A9",
"P. c #B3A4AB",
"I. c #B5A4AA",
"U. c #B7A7AA",
"Y. c #B7A6AC",
"T. c #B8A7AD",
"R. c #B8A8AB",
"E. c #B9A8AE",
"W. c #BAA9AF",
"Q. c #BBAAB0",
"!. c #BAABB2",
"~. c #BCABB1",
"^. c #BEADB3",
"/. c #BCADB4",
"(. c #BDAEB5",
"). c #BFAEB4",
"_. c #BEAFB6",
"`. c #BFB0B7",
"'. c #C0AFB5",
"]. c #C1B0B6",
"[. c #C3B2B8",
"{. c #C4B3B9",
"}. c #C5B4BA",
"|. c #C6B5BB",
" X c #C5B6BD",
".X c #C7B6BC",
"XX c #C6B7BE",
"oX c #C8B7BD",
"OX c #C9B8BE",
"+X c #CBBAC0",
"@X c #CCBBC1",
"#X c #CBBCC3",
"$X c #CDBCC2",
"%X c #CEBDC3",
"&X c #CCBDC4",
"*X c #CDBEC5",
"=X c #CFBEC4",
"-X c #D1C0C6",
";X c #D3C2C8",
":X c #D5C4CA",
">X c #D8C7CD",
",X c #DCCBD1",
"<X c #DDCED5",
"1X c #E0CFD5",
"2X c #E9D8DE",
"3X c #EBDAE0",
"4X c #ECDBE1",
/* pixels */
"< z s h W s O < 8 & 8 U h o + G & U Z 8 G S - + u o u ) 8 X 5 n 4 J J * 5 Q B . ",
"W :.=.h.[.~.i.a.i.0.C.].Y.6.3.F.c.|.[.E.oX[.C.k.k.=.S.OXD.1.h.N.s.!.!.p.;.d.-.y ",
") 7.6.C.-X%XF.c.k.k.E.+X{.N.h.L.j.|..X[.=X|.m.c.C.w.E.-X~.c.C.C.n. X#XK.i.h.-.v ",
"S :.O. .h.7.P G K K | 7.:.U G ^ u #.6.7.c.#.f h ! h O.h.| P ^ W c @.y.@.:.q.' # ",
"G h.0.G n u < f h u h n h 0 u M 6 [ 3.0.k.) 8 s M < h P 8 8 M h 9 g z R q.D.&.# ",
"Z C.k.Z 8 < 8 P Z n f s u f n Z h #.w.m.D. .s U P r h M 5 u P z Z g a E b.U.*.# ",
"h k.a.M u u r S z z h f h M z f r [ :.i.h.K < G Z 8 z Z 8 n P 0 J g s P t.b.] # ",
"M c.a.Z G K u u 0 f z n M Z h 5 u ^ #.w.a.Z < P f 5 M K u M G & c g g ! 0.a.] 3 ",
"! c.S...h h M h z z z z z z z z n W w.F.k.^ M M z z z z z z z z c c c ( s.A.*.3 ",
"f :.a.^ u h S M z z z z z z z z s G 6.N.w.P f h z z z z z z z z g a g J 7.c.} = ",
"h :.a.^ u h S M z z z z z z z z s G 6.c.w.P s h z z z z z z z z a a a E 7.z.} > ",
"! k.S...h h M h z z z z z z z z n ! w.F.k.^ M Z z z z z z z z z c c c ( h.A.&.3 ",
"! k.S...h h M h z z z z z z z z n ! w.F.j.^ M M z z z z z z z z c c c ( d.V.&.3 ",
"h :.a.^ u h S M z z z z z z z z s G 3.N.w.P f h z z z z z z z z g a g J 0.z.} : ",
"f :.h.! u h S M z z z z z z z z s G 3.m.w.P f h z z z z z z z z s a s U 0.z.} : ",
"! k.C.O.h h M h z z z z z z z z n ^ w.F.k.^ M M z z z z z z z z c c Z ^ t.V.&.3 ",
"z ..:.P 8 < r z 8 M u 6 M h 8 M < ..#.[ :.) r 0 r G f 8 z f < f c a q c ;.d.' > ",
"M h.w...6.O.G [ K S ^ #.) Z Z U u w.F.F.E.j.P n U Z ^ #.^ Z Z U ( ;.2.X.y.b.-.w ",
"z F.0.:.@X'.| w.E.3.).1XE.w.D.D.w.OX:X;X,X%XC.k.T.1.^.1XE.w.F.F.X.!. XM.w.C.,.3 ",
"8 I.6.:.2X>X..j.I.G Q.4XD.) k.a.3.Y.L.k.F.c.6.w.F.Z E.3XF.| m.k.X.#X<XP.6.c.,.: ",
"8 I.6.:.2X>X .j.I.G Q.4XD.) k.a.1.Y.L.k.F.m.6.0.F.Z E.3XF.| m.j.X.-X<XP.6.b.9.# ",
"h F.w.:.%X).| w.E.3.).1XE.w.D.D.w.OX:X;X,X@XC.k.T.1.^.1XQ.w.F.F.X.!. Xn.t.b.9.3 ",
"M a.w...6.O.G | K Z ^ #.) Z G U s w.F.F.E.k.P n U S ^ #.) M S U Q ;.2.X.0.b.*.3 ",
"n O.:.P 8 < 0 h 8 Z u 6 M h 6 n < | =.[ :.) r 0 0 G s 8 n f < f g a a Z &.t.' > ",
"! k.S...h h M h z z z z z z z z n W w.F.k.^ M M z z z z z z z z c c c ( d.S.&.3 ",
"h :.a.^ u h S M z z z z z z z z s G 6.N.w.P f h z z z z z z z z d a g I 6.l.] > ",
"f :.h.! u h S M z z z z z z z z s G 6.c.w.P s h z z z z z z z z d a a I q.z.} > ",
"! k.C.O.h h M h z z z z z z z z n ! w.F.k.^ M Z z z z z z z z z c c c ( h.C.&.3 ",
"! c.S...h h M h z z z z z z z z n ! w.F.j.^ M M z z z z z z z z c c c ( t.D.&.3 ",
"f :.a.^ u h S M z z z z z z z z s G 3.N.w.P f h z z z z z z z z d a g I 0.z.] > ",
"f :.a.^ u h S M z z z z z z z z s G 3.m.w.P f h z z z z z z z z d s s I 6.z.] > ",
"! c.S...h h M h z z z z z z z z n ^ w.F.k.^ M M z z z z z z z z c c c ^ t.D.&.3 ",
"u a.a.P P U s 0 0 f z z M Z h 5 h ..6.k.c.P 8 ^ f 5 M G u Z G & s d c ) t.h.' > ",
"r h.a.S h h u S z z h f h M z f r ^ =.w.h.G < G Z 8 z Z 8 n P 0 A g a E h.b.] # ",
"z c.k.G r 6 8 P Z M f s u f n Z f O.w.k.C.| r K P 8 h Z 5 u P z J g a J z.U.-.# ",
"M a.6.G Z s 5 z h u f n h 0 u M 0 ..6.h.N. .r z M < h K 8 8 M f a g g J 0.b.*.> ",
"S =...| h.0.W U K K | 7.1.U G ^ f :.0.w.C.:.z n ^ h O.h.| G ^ W J ;.7.X.X.6.} 1 ",
"^ 6.3.m.=X%XL.S.k.k.E.@X{.m.h.L.i.].[.^.+X'.j.a.C.w.E.;X~.c.S.C.n. X#XH.y.d.-.b ",
"^ =.O.w.].~.h.c.i.0.C.].Y.3.3.F.h.'.^.L.[.).j.i.k.=.S.oXD.1.h.N.y.!.`.s.:.t.-.w ",
"5 z 0 u P s $ u 8 & 0 U h o + G & U Z 8 S G < + u o u ) 8 X < n % J J 4 0 ^ B   "
};
