/* XPM */
static char *_cd6fe755a8040e2849ae528b6cc7c4a8bvzYTbVQgrOxUyV[] = {
/* columns rows colors chars-per-pixel */
"40 40 237 2 ",
"   c None",
".  c #4D1F1F",
"X  c #531F1F",
"o  c #571F1E",
"O  c #581E1C",
"+  c #591E1E",
"@  c #591F1F",
"#  c #5B1F1F",
"$  c #5A201F",
"%  c #4C2020",
"&  c #4D2121",
"*  c #4E2121",
"=  c #4F2121",
"-  c #4F2220",
";  c #502220",
":  c #542220",
">  c #542222",
",  c #572323",
"<  c #502422",
"1  c #5C2222",
"2  c #5D2323",
"3  c #5B2523",
"4  c #582424",
"5  c #5A2424",
"6  c #5B2525",
"7  c #5B2625",
"8  c #5B2626",
"9  c #5C2626",
"0  c #5E2727",
"q  c #5B2828",
"w  c #5E2929",
"e  c #602424",
"r  c #632726",
"t  c #652726",
"y  c #642727",
"u  c #652828",
"i  c #652929",
"p  c #672828",
"a  c #672A2A",
"s  c #622F2D",
"d  c #672C2C",
"f  c #6A2929",
"g  c #692A2A",
"h  c #6A2A2A",
"j  c #6B2C2A",
"k  c #702828",
"l  c #712929",
"z  c #742929",
"x  c #762A29",
"c  c #762D2D",
"v  c #762F2D",
"b  c #762E2E",
"n  c #772F2F",
"m  c #792C2A",
"M  c #7A2E2D",
"N  c #782E2E",
"B  c #7B2E2E",
"V  c #7E302F",
"C  c #7E3030",
"Z  c #7E3130",
"A  c #842D2D",
"S  c #852E2D",
"D  c #862E2E",
"F  c #872E2E",
"G  c #872F2E",
"H  c #882E2D",
"J  c #892E2D",
"K  c #882F2E",
"L  c #8A2F2F",
"P  c #8C2F2F",
"I  c #8D2F2F",
"U  c #8C302F",
"Y  c #8D302F",
"T  c #94302F",
"R  c #95302F",
"E  c #96302F",
"W  c #98302F",
"Q  c #8C3030",
"!  c #8D3030",
"~  c #8F3130",
"^  c #913130",
"/  c #913131",
"(  c #903231",
")  c #923231",
"_  c #923232",
"`  c #953030",
"'  c #963030",
"]  c #9D3131",
"[  c #9C3230",
"{  c #9C3231",
"}  c #9D3231",
"|  c #9F3231",
" . c #9D3433",
".. c #9E3433",
"X. c #A03232",
"o. c #A13232",
"O. c #A23232",
"+. c #A33333",
"@. c #A43232",
"#. c #A13433",
"$. c #A23535",
"%. c #A33535",
"&. c #A43434",
"*. c #A43534",
"=. c #A53535",
"-. c #A63434",
";. c #A63535",
":. c #A53635",
">. c #A83535",
",. c #A83636",
"<. c #A93736",
"1. c #AA3636",
"2. c #AB3636",
"3. c #AB3737",
"4. c #AD3636",
"5. c #AC3737",
"6. c #AD3737",
"7. c #AF3838",
"8. c #AF3938",
"9. c #B43B3A",
"0. c #B53B3B",
"q. c #B73A3B",
"w. c #B63B3B",
"e. c #B73B3B",
"r. c #BA3C3B",
"t. c #BA3C3C",
"y. c #BB3D3C",
"u. c #BB3D3D",
"i. c #BC3D3C",
"p. c #BC3D3D",
"a. c #BD3D3D",
"s. c #C33E3E",
"d. c #C43F3F",
"f. c #C4413F",
"g. c #C63F40",
"h. c #C54040",
"j. c #C44140",
"k. c #C64040",
"l. c #C74041",
"z. c #C84041",
"x. c #C94141",
"c. c #C84240",
"v. c #C94241",
"b. c #CA4241",
"n. c #CA4342",
"m. c #CB4342",
"M. c #CF4443",
"N. c #D24344",
"B. c #D04544",
"V. c #D14544",
"C. c #D14445",
"Z. c #D14545",
"A. c #D34544",
"S. c #D24445",
"D. c #D24545",
"F. c #D34545",
"G. c #D24644",
"H. c #D24645",
"J. c #D34645",
"K. c #D44645",
"L. c #D54645",
"P. c #D54745",
"I. c #D64745",
"U. c #D54646",
"Y. c #D44746",
"T. c #D54746",
"R. c #D74646",
"E. c #D64746",
"W. c #D64647",
"Q. c #D74647",
"!. c #D74747",
"~. c #D84747",
"^. c #D94747",
"/. c #D74846",
"(. c #D84748",
"). c #D94848",
"_. c #DA4848",
"`. c #DB4848",
"'. c #DB4849",
"]. c #DC4849",
"[. c #DD4849",
"{. c #DD4949",
"}. c #DE4849",
"|. c #DF4849",
" X c #DE4949",
".X c #DD484A",
"XX c #DE484A",
"oX c #DF484A",
"OX c #DE494A",
"+X c #DF494A",
"@X c #DF494B",
"#X c #DF4A4A",
"$X c #DF4A4B",
"%X c #DF4B4C",
"&X c #DB4D4D",
"*X c #DF4D4E",
"=X c #DF5051",
"-X c #DF5455",
";X c #E0494A",
":X c #E1494A",
">X c #E0494B",
",X c #E04A4B",
"<X c #E14A4B",
"1X c #E24A4B",
"2X c #E34A4B",
"3X c #E24B4B",
"4X c #E34B4B",
"5X c #E44A4B",
"6X c #E34B4C",
"7X c #E44B4C",
"8X c #E54B4C",
"9X c #E04C4D",
"0X c #E54F4F",
"qX c #E35051",
"wX c #E15252",
"eX c #E15253",
"rX c #E65051",
"tX c #E15354",
"yX c #E15455",
"uX c #E35455",
"iX c #E15556",
"pX c #E2595A",
"aX c #E25A5B",
"sX c #E7595A",
"dX c #E75A5B",
"fX c #E05B5C",
"gX c #E05C5D",
"hX c #E15C5D",
"jX c #E15D5D",
"kX c #E25C5D",
"lX c #E15D5E",
"zX c #E25C5E",
"xX c #E25D5E",
"cX c #E25E5E",
"vX c #E25E5F",
"bX c #E35E5F",
"nX c #E45D5E",
/* pixels */
"                                                                                ",
"                                  = 5 o # 3 =                                   ",
"                          w B _ %.7.t.t.a.q.8.%._ V s                           ",
"                      u U 3.h.~.2X5X0X9X5X0X9X>XQ.s.;.U f                       ",
"                    G 4.C.2X5X].[.[.].].2X].].].2X7X0XC.3.G                     ",
"                f E z.rXyX-XqX2X2X].].].2X].2X].].].[.>X7Xh.' f                 ",
"              n O.&XdXfXxXxXxXyX[.2X].2X].2X].2X2X].2X].2X8X).| n               ",
"            n @.qXxXxXxXfXxXfXsX>X].2X].2X].].>X].2X].2X].].>X].#.n             ",
"          f O.qXvXxXfXxXxXfXxXfX9X].].2X].2X9X].2X].].].>X2X].].].#.u           ",
"        < W &XnXxXxXxXfXfXxXxXyX2X].2X].].].2X].2X].2X].2X].2X>X2XQ.E           ",
"        K z.sXxXfXnXfXnXxXxXxX9X].2X].2X2X].].2X].2X].2X].2X].].].3Xt.G         ",
"      r 4.0XfXxXnXfXnXfXxXxXqX].].].].2X].2X2X].2X].].>X].].2X9X2X]./.&.u       ",
"      U N.qXxXfXfXnXxXfXnXyX].2X2X].2X].2X].2X2X].].2X].2X].2X].].2XQ.f.U       ",
"    5 3.2X*XxXxXnXfXxXfXqX2X2X].].2X2X].].2X].].2X2X].2X].2X2X].2X].G.C.%.5     ",
"    V d.7X].tXxXfXfXyX%X].].2X2X2X].].2X].].9X].].2X].].9X].].2X].].G./.r.N     ",
"    _ Q.2X].2X].9X2X2X[.].2X].].].].2X].2X].2X].2X].2X].2X].2X].2X(.G.L.z.U     ",
"    $.2X].].2X].2X].].2X].2X9X].2X].].2X2X].2X].].2X2X].2X].].2X].].C.Y.M. .    ",
"  = 4.7X].2X].2X].].2X].].].2X].].2X2X].].].].2X2X].].].].2X2X].]./.G.M.Y.3.%   ",
"  5 q.5X].2X].].2X].].2X2X].].2X].2X].2X].2X].2X].].9X2X9X].].2X#XY.M.Y./.8.5   ",
"  # i.0X).2X2X].].2X].2X].2X2X].2X9X].].2X9X].].2X].2X].2X].2X].).B.C.M.G.9.$   ",
"  # t.7X].2X].2X].].2X].2X].2X2X].].].].9X2X].2X].2X>X].].].2X].Y.M.G.M.C.9.$   ",
"  3 q.7X].].2X].9X2X2X].].2X].].].2X2X].2X].2X].].].2X].2X].2X].M.Y.G.M./.9.5   ",
"  = 8.9X].2X2X].2X].].2X].].9X].2X].].2X].].2X].9X2X].2X].].]./.M.M.C.M.C.3.;   ",
"    %.2X9X].].2X].].2X].2X].2X].].2X2X].].2X].2X2X].2X].2X2X!.M.Y.M.G.G.C. .    ",
"    _ Q.2X].2X].].2X].2X].2X].2X2X9X2X].].].2X9X].].2X].2X].G.G.G.M.C.Y.c.U     ",
"    m h.2X].].2X2X].].9X].].2X].].].].2X2X2X].].].2X].3X].C.M.G.G.C.M./.r.l     ",
"    , 3.5X[.].2X].2X2X].2X].2X2X2X].2X].].2X2X].2X].2X].Y.M.C.G.G.M.M.Y.,.:     ",
"      ! N.0X].].3X].].2X].2X].].2X].].].2X].].2X].2X].C.M.G.C.M.G.M.Y.f.G       ",
"      u 4.0X[.;X].2X].].].2X].2X].2X].].].2X].].3X).C.M.Y.M.C.G.C.G.Y.;.1       ",
"        G h.7X[.2X].].2X].].2X].2X].].2X2X].2X]./.M.G.G.M.G.M.G.M./.r.G         ",
"          E C.2X].2X2X].2X].2X].].2X2X].2X].).C.M.C.C.G.C.M.C.B.C.n.E           ",
"          f | C.).].].2X].2X].2X2X9X].]./.C.G.M.G.G.M.G.G.G.M.Y.M.| u           ",
"            N | C.C.M.Q././.).~././.C.G.M.Y.M.G.M.G.M.C.C.M.Y.M. .l             ",
"              v [ M./.M.M.M.M.C.B.M.C.C.M.M.Y.M.C.G.G.B.M.Q.n.| l               ",
"                j ' a.Q.Y.M.C.C.C.G.C.M.Y.Y.M.M.C.M.M.Y.Q.r.T r                 ",
"                    G ;.f.Y./.Y.M.Y.M.M.M.M.M.Y.Y./.Y.f.&.G                     ",
"                      d U %.r.z.C.Q./.Q./././.C.f.r.%.G 3                       ",
"                          q V U  .<.8.9.9.8.,. .( x $                           ",
"                                  = 3 # # ;                                     ",
"                                                                                "
};
