/* XPM */
static char *_30ced6c6cfa42abeac0eb23419cb74euHFGFYGg7x7ynrgK[] = {
/* columns rows colors chars-per-pixel */
"40 40 69 1 ",
"  c #3E0100",
". c #870000",
"X c #8A0200",
"o c #8D0A01",
"O c #920300",
"+ c #9D0200",
"@ c #910B00",
"# c #9A0A00",
"$ c #881406",
"% c #86170E",
"& c #8F170B",
"* c #8E190F",
"= c #921304",
"- c #9A1300",
"; c #921905",
": c #901A0E",
"> c #861910",
", c #8F1B10",
"< c #A30500",
"1 c #AC0400",
"2 c #B10300",
"3 c #B60900",
"4 c #BA0C00",
"5 c #A51400",
"6 c #AA1700",
"7 c #A71A00",
"8 c #AA1E00",
"9 c #B41400",
"0 c #BB1500",
"q c #B01F00",
"w c #BF1B00",
"e c #AD2200",
"r c #BC2B00",
"t c #C11500",
"y c #C31B00",
"u c #CA1E00",
"i c #C52200",
"p c #CA2400",
"a c #CC2400",
"s c #CC2700",
"d c #CE2600",
"f c #CF2900",
"g c #D02700",
"h c #D22800",
"j c #D42900",
"k c #D42B00",
"l c #D12D00",
"z c #D72E00",
"x c #D82C00",
"c c #DC2D00",
"v c #C53100",
"b c #C73200",
"n c #C73300",
"m c #CF3500",
"M c #CF3800",
"N c #D43100",
"B c #D33400",
"V c #D53600",
"C c #DA3200",
"Z c #D33800",
"A c #D53900",
"S c #D43E00",
"D c #D53E00",
"F c #D93D00",
"G c #D64000",
"H c #D74200",
"J c #D74201",
"K c #D84000",
"L c #DA4301",
/* pixels */
"@;@oXoo@@o@@oXoooooooXoXoooooXoooooXo@==",
"o;@-8ee8eeeeeeeeeeee88877666666666665o==",
"@;oeKDFKGGFGJJGGJGJJDGJDNzjzxzzxzxjcio==",
"@;oqKDDDSSGSGGDSGSGGSDDGVhzhjhzjkhzxi@;@",
"@;@eKDDDDDDDDDDDSSDDDDGZhhzhzkkkzhkxy@;=",
"o;@eLGDDDDDDDDDDSSDSDDJBkzjzhkjzhzkzio=@",
"@;oeGDDDDDDDDDDDSDDGDDDBkkzjzhzhfNkzio;=",
"@;oeKDDDDDDDDDDSZSDGDDVkkkhzjzjzBkhpw@==",
"@;@8KDGDDDDDDDDZvmSAZNkhkzzjzjggpiwy9@==",
"o;@qKDGDDDDDDMvrrrmzkkkzzjhzzhyywwwy0@;=",
"@;OqKDDDDDDDDMnvrvNzkkzjhzhjfiywwwwu0o;=",
"@;OqDDDDDDDDDDSADANhzkhzzjzjywwwwwwt0o;@",
"o:o8KDDDDDDDDDDDDBkNzjzjkkzhywwwwwwu0o&=",
"o,oeFDDDZBzzNBAAZBhhhzhzkhzpwwyiiwwy0O*&",
"$:@9CxxhhkkkkkkkzhNjzjhzkkjywwwBdw0u0o*o",
"@,@1jdhzzkkkkkkkhzhxkkkzjzgwwwwyywyy0@*=",
"o,o5ywydkhzjzjzzzzhzhzNffpyywwwwwwwy0@,=",
"o,@5wyyypzhipppghzzgzjpiwwwwwwwwwwwy0@,=",
"o,o5rttujzdwwwwyddfppywwwwwwwwwwwwyy0o*=",
"$,o5t34yudiwwwwwyriywwwywwwwwwwwwwyu0o*=",
"@,o#3124ywwwwwwwwwwwwwwwwwwwwwwwwwwy0O,=",
"@,#<22220ywwwwtyytywwwwwwwwwwwwwwwwy0O,=",
"o,#<12224ywwwyt43tyywwwwwwwwwwwwwwyy0o*=",
"$,##22212tywwyt314tywwwwwwwwwwwywwyy0@*=",
"@,##222224ywyww030twwwwwwwwyyytywwwyw@,=",
"o,#<222223yywwwttyywwwwwwyytt0tywwwy0o,=",
"o,#+222223ttwwwwtyywwwwwy033324tywyt0@*@",
"&,#<212222tpywwywywwywww4212222twwyu0o*=",
"o,#<22222224tt044044ttyy31222214ywwy0@*=",
"$,#+111122222222222230yy42222224yyyy0@*=",
"o,#@XXXO22212222222222332212224ttttt9@*=",
"o,#XX..O12222221121221221222223tt3321@&=",
"=,@o..X.+222222211<1<1<11222222432121o*=",
"o,oX....X1111<++XOOXXXOXO121222222221o*=",
"@*=X.X..XXXXXX......X...XX+1222122221o&=",
"$,=X..XXX.X.X....X..X..XX.X<222222221@*=",
"@*ooXXX..XXXXXXXXXXXXXX.XXXO<1112111<o*$",
"@*@@@@@@@#$o@@@@@o@@@@@@@@@@@o@@@@@@@@*&",
"o>$ooXooooo.o.ooooXoooXooXooXooXooXooo%$",
"                                        "
};
