/* XPM */
static char *result[] = {
/* columns rows colors chars-per-pixel */
"64 64 255 2 ",
"   c #0A0801",
".  c #140201",
"X  c #1C0101",
"o  c #001800",
"O  c #121A0E",
"+  c #230100",
"@  c #2C0000",
"#  c #2E0D06",
"$  c #340000",
"%  c #3B0100",
"&  c #390D05",
"*  c #381408",
"=  c #331B17",
"-  c #2D160F",
";  c #012600",
":  c #11300C",
">  c #2C2D10",
",  c #0C3232",
"<  c #25282A",
"1  c #2A2A32",
"2  c #2B3A3C",
"3  c #36393C",
"4  c #34322C",
"5  c #251923",
"6  c #440100",
"7  c #4B0201",
"8  c #470707",
"9  c #530000",
"0  c #5B0102",
"q  c #580809",
"w  c #561505",
"e  c #590911",
"r  c #461917",
"t  c #561517",
"y  c #46130A",
"u  c #640100",
"i  c #6B0100",
"p  c #670807",
"a  c #740101",
"s  c #7C0100",
"d  c #770A0A",
"f  c #691206",
"g  c #76160B",
"h  c #660312",
"j  c #770615",
"k  c #691617",
"l  c #7B1917",
"z  c #482A14",
"x  c #7A261C",
"c  c #682311",
"v  c #4F1D2C",
"b  c #492C24",
"n  c #572A26",
"m  c #54322A",
"M  c #593732",
"N  c #4A3736",
"B  c #663837",
"V  c #712D2E",
"C  c #731724",
"Z  c #0A5011",
"A  c #2A4B19",
"S  c #00660A",
"D  c #165C26",
"F  c #2F512D",
"G  c #1E7031",
"H  c #2E7430",
"J  c #505433",
"K  c #704835",
"L  c #465E21",
"P  c #3B3C44",
"I  c #363642",
"U  c #243D41",
"Y  c #433B47",
"T  c #57324C",
"R  c #374446",
"E  c #2E4A4B",
"W  c #37716C",
"Q  c #296E51",
"!  c #4A4B4B",
"~  c #684748",
"^  c #735050",
"/  c #516554",
"(  c #6B6953",
")  c #577266",
"_  c #776B6A",
"`  c #575062",
"'  c #840001",
"]  c #8C0200",
"[  c #8A0C08",
"{  c #940101",
"}  c #9C0200",
"|  c #980708",
" . c #861405",
".. c #9A1609",
"X. c #850A15",
"o. c #9D0C16",
"O. c #861818",
"+. c #971819",
"@. c #A40201",
"#. c #AC0102",
"$. c #A80A08",
"%. c #B40102",
"&. c #BC0101",
"*. c #B80708",
"=. c #AA150B",
"-. c #BC1309",
";. c #B80712",
":. c #A7161A",
">. c #B61719",
",. c #A90912",
"<. c #952416",
"1. c #B22119",
"2. c #861D23",
"3. c #971428",
"4. c #AA1A25",
"5. c #B81922",
"6. c #B40E20",
"7. c #8B2828",
"8. c #9A2527",
"9. c #9B2931",
"0. c #8D3335",
"q. c #A92528",
"w. c #AB3537",
"e. c #B42A30",
"r. c #C40203",
"t. c #CC0301",
"y. c #C40A01",
"u. c #C9090B",
"i. c #D40101",
"p. c #DD0101",
"a. c #DC0A02",
"s. c #D40B0B",
"d. c #D9050A",
"f. c #C5130A",
"g. c #D71509",
"h. c #C80814",
"j. c #DC0B13",
"k. c #D80814",
"l. c #CA1817",
"z. c #D81618",
"x. c #E40201",
"c. c #EC0201",
"v. c #E40B03",
"b. c #EB0B03",
"n. c #E4040D",
"m. c #EC010B",
"M. c #EB0B0B",
"N. c #E5090C",
"B. c #F40201",
"V. c #FC0302",
"C. c #F20B03",
"Z. c #FD0B02",
"A. c #F3040B",
"S. c #FC030B",
"D. c #F30A0B",
"F. c #FD0B0B",
"G. c #E61208",
"H. c #FE120B",
"J. c #FA1305",
"K. c #E50C13",
"L. c #EC0C14",
"P. c #E80718",
"I. c #F40213",
"U. c #FC0312",
"Y. c #F30B13",
"T. c #FD0C13",
"R. c #F90A1A",
"E. c #E81717",
"W. c #F31415",
"Q. c #FD1313",
"!. c #FE1B1B",
"~. c #FA171A",
"^. c #CB2314",
"/. c #F82819",
"(. c #C91723",
"). c #D81A22",
"_. c #D10E28",
"`. c #FA0925",
"'. c #E61925",
"]. c #F91826",
"[. c #EF112E",
"{. c #C92427",
"}. c #D62537",
"|. c #D03431",
" X c #E62626",
".X c #FE2424",
"XX c #FE2929",
"oX c #FE3329",
"OX c #FE2B35",
"+X c #FD3836",
"@X c #E62B39",
"#X c #F2493B",
"$X c #D9453B",
"%X c #B33A41",
"&X c #EC3A41",
"*X c #964749",
"=X c #895757",
"-X c #8D4F4F",
";X c #AE494D",
":X c #866855",
">X c #92726E",
",X c #AC746D",
"<X c #A4615B",
"1X c #D0524F",
"2X c #F94646",
"3X c #F45350",
"4X c #FE6656",
"5X c #D05B61",
"6X c #CF736F",
"7X c #F07571",
"8X c #FF526F",
"9X c #108C26",
"0X c #03881D",
"qX c #3A954C",
"wX c #37AE4B",
"eX c #549053",
"rX c #48AB55",
"tX c #4CAE55",
"yX c #6F916D",
"uX c #57AA64",
"iX c #58B764",
"pX c #64B069",
"aX c #539D6A",
"sX c #68CE78",
"dX c #8E8C77",
"fX c #9DA07D",
"gX c #FF8175",
"hX c #569086",
"jX c #938F8F",
"kX c #A99288",
"lX c #BEBBB4",
"zX c #DD8186",
"xX c #FF9989",
"cX c #F19091",
"vX c #D1B9AF",
"bX c #FFA8AB",
"nX c #E9A89B",
"mX c #B8C1A6",
"MX c #FFCBBA",
"NX c #E8B9C5",
"BX c #A1C4C8",
"VX c #FFD8C7",
"CX c #FFD9D7",
"ZX c #FFCBC5",
"AX c #FDEBDA",
"SX c #FDF8DA",
"DX c #FFE5CF",
"FX c #D0EFEB",
"GX c #FFE9E6",
"HX c #FFF7E7",
"JX c #E8FEFA",
"KX c #FBFBFB",
"LX c #E8F0EF",
"PX c #EADCDC",
"IX c None",
/* pixels */
"IXIXIXIXIXIXIXIXIXIXIXIXIXIXIXIXIXIXIXIXIXIXIXIXIXIXIXIXIXIXIXIXIXIXIXIXIXIXIXIXIXIXIXIXIXIXIXIXIXIXIXIXIXIXIXIXIXIXIXIXIXIXIXIX",
"IXIXIXIXIXIXIXIXIXIXIXIXIXIXIXIXIXIXIX) IXIXIXIXIXIXIXIXIXIXIXIXIXIXjX  R jXIXIXIXIXIXIXIXIXIXIXIXIXIXIXIXIXIXIXIXIXIXIXIXIXIXIX",
"IXIXIXIXIXIXIXIXIXIXIXIXIXIXIXIXIXIXIXO R / IXIXIXIXIXIXIXIXIXIXIXIXO _ IX4 ) IXIXIXIXIXIXIXIXIXIXIXIXIXIXIXIXIXIXIXIXIXIXIXIXIX",
"IXIXIXIXIXIXIXIXIXIXIXIXIXIXIXIXIXIXIXA yXpXyX: IXIXIXIXIXIXIXIXIXyXO IXIX  ( IXIXIXIXIXIXIXIXIXIXIXIXIXIXIXIXIXIXIXIXIXIXIXIXIX",
"IXIXIXIXIXIXIXIXIXIXIXIXIXIXIXIXIXIXIXF yXeXeXeXD A IXIXIXIXIXIXIXO ( :Xb = IXIXIXIXIXIXIXIXIXIXIXIXIXIXIXIXIXIXIXIXIXIXIXIXIXIX",
"IXIXIXIXIXIXIXIXIXIXIXIXIXIXIXIXIXIXIXA fXqXH iXiXG : yXIXIXIXIXIX  IX:X+ IXIXIXIXIXIXIXIXIXIXIXIXIXIXIXIXIXIXIXIXIXIXIXIXIXIXIX",
"IXIXIXIXIXIXIXIXIXIXIXIXIXIXIXIXIXIXIX; qXtX9X9XwXsXwXZ yXIXIXIX( L IXb b IXIXIXIXIXIXIXIXIXIXIXIXIXIXIXIXIXIXIXIXIXIXIXIXIXIXIX",
"IXIXIXIXIXIXIXIXIXIXIXIXIXIXIXIXIXIXIX: 9XiXwX0X9XwXiXiXZ IXIXIXb K IXX IXIXIXIXIXIXIXIXIXIXIXIXIXIXIXIXIXIXIXIXIXIXIXIXIXIXIXIX",
"IXIXIXIXIXIXIXIXIXIXIXIXIXIXIXIXIXIXIX) Z aXtXwXS wXwXrXyX: IXIX& IXM b IXIXIXIXIXIXIXIXIXIXIXIXIXIXIXIXIXIXIXIXIXIXIXIXIXIXIXIX",
"IXIXIXIXIXIXIXIXIXIXIXIXIXIXIXIXIXIXIXIXo H iXtXtXS qXiXpXA dXIX& IX= IXIXIXIXIXIXIXIXIXIXIXIXIXIXIXIXIXIXIXIXIXIXIXIXIXIXIXIXIX",
"IXIXIXIXIXIXIXIXIXIXIXIXIXIXIXIXIXIXIXIX! ; uXpXtXwXS qXuXeXH / b ,X  IXIXIXIXIXIXIXIXIXIXIXIXIXIXIXIXIXIXIXIXIXIXIXIXIXIXIXIXIX",
"IXIXIXIXIXIXIXIXIXIXIXIXIXIXIXIXIXIXIXIXIX: F L tXiXiXZ qXpXD o ( J / IXIXIXIXIXIXIXIXIXIXIXIXIXIXIXIXIXIXIXIXIXIXIXIXIXIXIXIXIX",
"IXIXIXIXIXIXIXIXIXIXIXIXIXIXIXIXIXIXIXIXIX( > A eXtXpXiXD qXG ; ) < dXmXdXJ z z * * > 4 ( IXIXIXIXIXIXIXIXIXIXIXIXIXIXIXIXIXIXIX",
"IXIXIXIXIXIXIXIXIXIXIXIXIXIXIXIX_ m @ @ % $ @ z z L L eXrXD aX: ( X X + @ % p p f f 0 % @ @ b ^ IXIXIXIXIXIXIXIXIXIXIXIXIXIXIXIX",
"IXIXIXIXIXIXIXIXIXIXIXIXIXIX_   % 7 o.:.{.>.$.=.f w z A J ( > > K f s =.l. Xz.i.a.s.j.).(.:.i $ X _ IXIXIXIXIXIXIXIXIXIXIXIXIXIX",
"IXIXIXIXIXIXIXIXIXIXIXIXIXX X k q.2X2Xl.d.L.E.j.^.=. .f w $ $ % p s {.j.M.T.x.F.F.V.S.A.k.(.4.9.t y ^ IXIXIXIXIXIXIXIXIXIXIXIXIX",
"IXIXIXIXIXIXIXIXIXIXIX-X@ 0 <.3X3XoXg.g.g.G.b.c.c.a.-.$.] ' s ' $.s.K.c.c.B.Z.V.B.T.A.n.[.bXxX;X&X|.p X IXIXIXIXIXIXIXIXIXIXIXIX",
"IXIXIXIXIXIXIXIXIXIX^ 9 g <.4X#XQ.F.v.a.G.C.Z.V.V.B.p.t.y.f.f.l. XK.A.T.F.V.V.V.V.V.R.I.}.CXCXZX@X).:.0 r IXIXIXIXIXIXIXIXIXIXIX",
"IXIXIXIXIXIXIXIXIXIX$ l <.gX#XJ.B.V.B.D.D.V.V.V.S.B.B.I.Y.P.j.'.j.P.L.x.c.c.V.Z.J.p.R.m.@XbXAXAXxX(.}.5.9 t IXIXIXIXIXIXIXIXIXIX",
"IXIXIXIXIXIXIXIXIX+ p w.7X4X/.x.F.S.S.U.S.B.B.V.V.V.I.W.j.%.{ ] @.%.-.l.a.b.B.Z.x.b.I.].+X7XSXSXSX6X_.@X>.0 M IXIXIXIXIXIXIXIXIX",
"IXIXIXIXIXIXIXIXn 6 +.3XgXf.x.F.S.S.A.I.I.U.U.R.S.U.K.*.j % + + % % %  .z.D.B.B.b.~.oX+X@X1XMXSXSXDX|._.h.4.@ IXIXIXIXIXIXIXIXIX",
"IXIXIXIXIXIXIXIX$ O.5.7X Xa.c.F.S.U.I.L.k.h.s.K.m.Y.r.s $ X . # @ % $ 6 ] p.F.B.J.b.#XE.i.l.6XSXSXHXxXh.k.z.w * IXIXIXIXIXIXIXIX",
"IXIXIXIXIXIXIXB 6 ] 3X+XG.b.H.B.S.U.P.h. .u i ] s.g.$.u @ $ h j 3.e.9.a a %.m.B.b.i.XXB.c.E.1XMXHXHXAX$X].i.=.$ IXIXIXIXIXIXIXIX",
"IXIXIXIXIXIXIX@ u l.].x.C.C.V.F.A.n.u.] 6 @ % u f. Xg.{ p l 3.3.j 0 u 2.+.} r.!.b.v.c.B.T.A.i.1XGXGXVXgXa.!.g.a m IXIXIXIXIXIXIX",
"IXIXIXIXIXIXIX% o.s.Y.F.V.V.V.V.n.f.i 7 $ 6 u #.&./.i.L.z.}.j t lXPXjX@ O.1.*.g.c.C.b.C.V.S.I.P.8XNXDXxXG.Z.].@.$ IXIXIXIXIXIXIX",
"IXIXIXIXIXIX( 6 >.L.Z.V.V.V.V.B.N.$.6 8 x 8.>.j.g.G.B.T.`.} j GXJXFXKXjX9 a ' %.p.c.b.b.B.S.S.I.[.}.1X$Xv.c.S.).% IXIXIXIXIXIXIX",
"IXIXIXIXIXIX~ f l.Y.V.V.V.V.S.B.K.} ' x 7 a (.K.Q.p.Q.Q.u.u ,XKXKXKXKXCX* w <.{ y.p.C.B.V.V.S.U.`.P.^.^.v.B.I.l.9 ^ IXIXIXIXIXIX",
"IXIXIXIXIXIXM 7.).F.V.V.V.V.A.n.d.#.8.7 zX7.s '.c.V.V.E.} k HXLXLX` 5 vXdX% i #.y.a.b.B.B.V.S.S.I.P.f. XoXp.W.;.i V IXIXIXIXIXIX",
"IXIXIXIXIXIX# l z.V.V.V.V.V.M.k.%.e.$ kXKXGXX.h.p.!.p.f. .K KXJXW , W , B 9 { #.p.x.G.v.B.S.S.S.U.~.g.xXbXl. X}.X.8 IXIXIXIXIXIX",
"IXIXIXIXIXIXX f s.V.V.V.V.m.d.h.| l m KXJXvX,X] K.A.v.g.f ,XKXFX, Q hXF @ a (.N.c.C.G.v.C.V.S.S.B.b.y.xXZXe.h.,.X.% IXIXIXIXIXIX",
"IXIXIXIXIXIX+ f k.V.V.V.C.M.r.@.u B _ KXhXE = l z.x.T.E.u fXKXBX, E , 4 % e.[.p.A.V.V.B.V.B.D.C.B.C.g.4XZX8X@X_.X.$ IXIXIXIXIXIX",
"IXIXIXIXIXIX+ q z.V.V.V.Z.b.r.{ w.+ ^ FXU ) # h l.].B.d.{ <XKXFX  , ! X j }.d.R.S.F.S.V.V.V.C.C.J.b.a.^.gX@Xh.(.O.% IXIXIXIXIXIX",
"IXIXIXIXIXIX  c z.c.Z.B.V.c.x.%.] 7 >XjXE < = d k.`.c.M.{.f AXHXE O . 6 4._.n.U.x.C.C.B.V.S.V.V.c.Z.c.x.M.M.d.(.;Xn IXIXIXIXIXIX",
"IXIXIXIXIXIX. t l.p.Z.B.V.B.Q.n.;.4.V vX4 = % q.j.c.B.G.-.0 ,XvXnXw 6 4._.k.'.j.g.G.b.B.V.V.V.V.B.Z.Z.B.V.S.d.;.7.& IXIXIXIXIXIX",
"IXIXIXIXIXIX4 6 {.i.Z.Z.c.B.D.Y.`.(.g ,X> # a (.W.A.J.a.^.1.{ ] ] } h._.;.] 0 9 ..^.a.c.V.V.A.F.V.Z.V.B.V.A.k.;.j @ IXIXIXIXIXIX",
"IXIXIXIXIXIX~ $ {.r.J.Z.c.B.B.c.W.h.8.g x 0 5.j.c.F.J.a.t. Xh.P.k.P.`.[.}.[ 9 c g =.g.x.B.V.B.F.B.Z.V.B.V.A.k.;.q & IXIXIXIXIXIX",
"IXIXIXIXIXIXIX@ e.&.x.H.B.F.B.x.%.*.^.%.h.z.P.U.V.J.c.V.c.D.m.].].k.P._.] j V c i $.j.v.C.B.V.V.B.V.V.B.V.M.k.>.9 m IXIXIXIXIXIX",
"IXIXIXIXIXIXIX$ :.r.i.M.B.F.B.i.{ } E.Y.U.`.B.U.V.H.c.Z.F.F.c.i.i.k.(.' 0 k x 9 i #.j.b.C.B.V.V.V.F.F.C.A.n.h.4.% _ IXIXIXIXIXIX",
"IXIXIXIXIXIXIXy d 5.&.a.m.B.c.i.%.} y.N.].].R.A.x.F.Z.B.i.n. Xl.>.[ 6 % w h 0 s a %.K.M.B.V.V.V.V.!.!.D.m.d.;.+.$ IXIXIXIXIXIXIX",
"IXIXIXIXIXIXIXB u |.#.s.M.A.S.c.v.t.| g.).2X+Xa..Xp.v.E.z.f.@.s u 7 w t % 7 j a a ;.E.m.B.V.B.V.Q..X.X~.N.r.#.3.+ IXIXIXIXIXIXIX",
"IXIXIXIXIXIXIXIX6 +.:.&.E.c.~.c.c.W. X1... ...$.$.$.[ ' i i u 0 i i q 8 7 q u u a =.j.x.Z.B.b.oXXXQ.~.G.t.h.:.h $ IXIXIXIXIXIXIX",
"IXIXIXIXIXIXIXIX% x o.;.s.x.U.c.m..XoX|.=.a u u 0 9 9 7 6 6 9 u u u 9 6 8 q q 0 a (.'.c.F.Q./.oXQ.c.G.j.&.#.4.9 B IXIXIXIXIXIXIX",
"IXIXIXIXIXIXIXIXM 8 8.,.&.P.m.~.#X+XXX`.P.h.] u 7 6 6 8 q e e e d d 0 7 & y 7 9 $.E.A.c./.#XoXW.I.m.z.f.*.| 8.$ IXIXIXIXIXIXIXIX",
"IXIXIXIXIXIXIXIXIX+ 0.| *.'.~.OXoX~.m.A.U.P.,.a 9 7 7 8 8 8 % 8 0 0 7 8 * & 9 s k.Y.S.!.oXoXG.x.n.~.z.%.} 4.d % IXIXIXIXIXIXIXIX",
"IXIXIXIXIXIXIXIXIX= k q.*. XOXXXc.D.U.S.U.m.;.{ i u h h e 8 r t q 9 8 r * $ i #.P.R..XoX/.a.x.T.n.K.*.@...q.6 =XIXIXIXIXIXIXIXIX",
"IXIXIXIXIXIXIXIXIXIX$ %X} l.XXm.V.V.V.V.U.Y.s.,.s p 0 h e e % 8 9 7 % & & 9 { k.m.~..XH.p.p.A.U.R.i.@.=.+.d % IXIXIXIXIXIXIXIXIX",
"IXIXIXIXIXIXIXIXIXIXt 2.,.%.a.p.F.V.c.c.B.G.>...9 % 7 7 7 6 6 9 e k t % 7 ' h.~.M.b.C.c.c.S.U.m.m.u.@.=.+.9 -XIXIXIXIXIXIXIXIXIX",
"IXIXIXIXIXIXIXIXIXIXIX7 e.,.#.E.B.Z.Z.J.Z.a.-. .7 c -X-XC k *XzXzXcX6XO.] h.E.m.M.x.c.H.F.B.A.I.r.h.>.[ O.% IXIXIXIXIXIXIXIXIXIX",
"IXIXIXIXIXIXIXIXIXIXIXr 0 9.,.&.H.p.C.H.x.n.r.i w.zXnX<X*XzXcXzXgX%X] } u.N.A.F.B.F.F.B.c.L.P.d.h.@.o.7.% M IXIXIXIXIXIXIXIXIXIX",
"IXIXIXIXIXIXIXIXIXIXIXIX$ 2.X.@.t.J.J.c.A.L.k.;.{ e.;X5X6X7X5X}.] { %.z..XF.B.B.F.B.B.A.L.k.r.%.,.o.8.6 * IXIXIXIXIXIXIXIXIXIXIX",
"IXIXIXIXIXIXIXIXIXIXIXIX=X% 9.o.{ g.N.p.T.OX].E.z.%.{ ' ] { @.%.j.L.W.W.x.x.c.J.B.M.b.a.u.f.$.{ | 9.h @ IXIXIXIXIXIXIXIXIXIXIXIX",
"IXIXIXIXIXIXIXIXIXIXIXIXIXt 9 8.$.@.r.].OXOX].d.j.z.E.).z.g.d.p.U.F.S.B.c.c.B.C.b.b.G.f.*.@.@...3.2.$ IXIXIXIXIXIXIXIXIXIXIXIXIX",
"IXIXIXIXIXIXIXIXIXIXIXIXIXIX$ 9 8.| 5.2XOXP.m.A.x.D.C.x.x.C.F.T.c.c.B.B.F.H.F.c.M.t.r.y.f.@.#.1.2.@ ~ IXIXIXIXIXIXIXIXIXIXIXIXIX",
"IXIXIXIXIXIXIXIXIXIXIXIXIXIXIX& e %X;X4.;.d.m.Q.C.B.B.Z.Z.B.B.c.!.!.W.b.x.c.c.x.i.t.%.} $.1.>.[ % n IXIXIXIXIXIXIXIXIXIXIXIXIXIX",
"IXIXIXIXIXIXIXIXIXIXIXIXIXIXIXIXM ^ 0.d { *.g.a.B.B.c.B.b.b.F.D.y.-.-.f.-.*.%.&.%.u.*.{ [ 8.x 8 r IXIXIXIXIXIXIXIXIXIXIXIXIXIXIX",
"IXIXIXIXIXIXIXIXIXIXIXIXIXIXIXIXIX- @ 7.q.{ #.%.i.G.G.i.r.t.j.l.>...| { } @.@.*.,.} o.w.0.7 # = IXIXIXIXIXIXIXIXIXIXIXIXIXIXIXIX",
"IXIXIXIXIXIXIXIXIXIXIXIXIXIXIXIXIXIXN + 9 +.>.$.$.$.=.$.$.| [ X.q.8.q.5.5.6.6.6.3.w.;X-X8 X >XIXIXIXIXIXIXIXIXIXIXIXIXIXIXIXIXIX",
"IXIXIXIXIXIXIXIXIXIXIXIXIXIXIXIXIXIXIXdXy $ u O.g O.O.7.l 0 $ @ % 7 0 i s X.X.j C V v @ ^ IXIXIXIXIXIXIXIXIXIXIXIXIXIXIXIXIXIXIX",
"IXIXIXIXIXIXIXIXIXIXIXIXIXIXIXIXIXIXIXIXIX>Xn @ $ $ @ + + 5 N ~ =X-X^ ~ M b = = ^ _ IXIXIXIXIXIXIXIXIXIXIXIXIXIXIXIXIXIXIXIXIXIX",
"IXIXIXIXIXIXIXIXIXIXIXIXIXIXIXIXIXIXIXIXIXIXIXIXIXIXIXIXIXIXIXIXIXIXIXIXIXIXIXIXIXIXIXIXIXIXIXIXIXIXIXIXIXIXIXIXIXIXIXIXIXIXIXIX",
"3 1 Y IX1 IXIXIX1 3 3 1 < 1 U R R R R R 3 3 3 P ! P ! ! ! R U U R P F 3 P I U U E P I I Y T T v Y P P P P Y Y ! P P P P P I I I ",
"1 1 IXIXIXIXIXIXIXIXIXIXIXIXIXIXIXIXIXIXIXIXIXIXIXIXIXIXIXIXIXIXIXIXIXIXIXIXIXIXIXIXIXIXIXIXIXIX1 IXIXIX1 1 1 1 IXIXIXIXIXI IXIX",
"IXI IXIXIXIXIXIXIXIXIXIXIXIXIXIXIXIXIXIXIXIXIXIXIXIXIXIXIXIXIXIXIXIXIXIXIXIXIXIXIXIXIXIXIXIXIXIXIXIXIXIXIXIXIXIXIXIXIXIXIXIXIXIX",
"IXIXIXIXIXIXIXIXIXIXIXIXIXIXIXIXIXIXIXIXIXIXIXIXIXIXIXIXIXIXIXIXIXIXIXIXIXIXIXIXIXIXIXIXIXIXIXIXIXIXIXIXIXIXIXIXIXIXIXIXIXIXIXIX"
};
