/* XPM */
static char *result[] = {
/* columns rows colors chars-per-pixel */
"64 64 182 2 ",
"   c #0E182B",
".  c #011737",
"X  c #0F1B30",
"o  c #021C3D",
"O  c #0F1F3A",
"+  c #111E34",
"@  c #142036",
"#  c #14223B",
"$  c #18253D",
"%  c #021D44",
"&  c #032145",
"*  c #04244C",
"=  c #09254B",
"-  c #05294E",
";  c #0A284F",
":  c #142643",
">  c #1A2946",
",  c #142C4D",
"<  c #192A49",
"1  c #042652",
"2  c #052B55",
"3  c #0A2C54",
"4  c #052D5B",
"5  c #0A2E5A",
"6  c #132E52",
"7  c #1A2E51",
"8  c #0F3057",
"9  c #06315D",
"0  c #0A325D",
"q  c #09385F",
"w  c #133255",
"e  c #1A3455",
"r  c #13345B",
"t  c #19375C",
"y  c #14395E",
"u  c #193A5E",
"i  c #062F61",
"p  c #082F60",
"a  c #063463",
"s  c #0A3563",
"d  c #063966",
"f  c #0A3A65",
"g  c #063669",
"h  c #093769",
"j  c #063A6B",
"k  c #0A3C6B",
"l  c #123762",
"z  c #133B65",
"x  c #193D65",
"c  c #133E6A",
"v  c #1D3D69",
"b  c #063E72",
"n  c #093E72",
"m  c #153F70",
"M  c #07406D",
"N  c #0C416E",
"B  c #154067",
"V  c #14436D",
"C  c #1A436B",
"Z  c #194B6D",
"A  c #074175",
"S  c #0B4374",
"D  c #0D4A77",
"F  c #07447A",
"G  c #0A457A",
"H  c #07497E",
"J  c #0C4A7C",
"K  c #134574",
"L  c #1A4572",
"P  c #144975",
"I  c #194B74",
"U  c #10467B",
"Y  c #124C7C",
"T  c #1A4C7B",
"R  c #16517F",
"E  c #1B527D",
"W  c #244C75",
"Q  c #2C4F77",
"!  c #224B7A",
"~  c #31527B",
"^  c #074A83",
"/  c #0C4C82",
"(  c #0A4E89",
")  c #114D82",
"_  c #1E4F80",
"`  c #0D5185",
"'  c #0F5B87",
"]  c #0D548A",
"[  c #0E598E",
"{  c #125384",
"}  c #1B5482",
"|  c #135985",
" . c #1B5985",
".. c #12558A",
"X. c #1B5589",
"o. c #135A8D",
"O. c #1C5B8C",
"+. c #0C5691",
"@. c #0D5B93",
"#. c #0E5E9A",
"$. c #135C92",
"%. c #1B5E92",
"&. c #105F9C",
"*. c #245E8E",
"=. c #235386",
"-. c #3C5F84",
";. c #2E5F91",
":. c #19618E",
">. c #0D6197",
",. c #0E6299",
"<. c #136295",
"1. c #1A6394",
"2. c #1E6A97",
"3. c #13649B",
"4. c #1B659B",
"5. c #13699D",
"6. c #196A9D",
"7. c #3E628A",
"8. c #226797",
"9. c #2D6696",
"0. c #20669A",
"q. c #2A6599",
"w. c #21689E",
"e. c #3A6792",
"r. c #346995",
"t. c #23729E",
"y. c #3E729E",
"u. c #0E65A2",
"i. c #1966A1",
"p. c #146BA3",
"a. c #196BA3",
"s. c #146EA9",
"d. c #1A6EAA",
"f. c #1466A4",
"g. c #1D72A5",
"h. c #1B7AA7",
"j. c #1472AC",
"k. c #1C73AC",
"l. c #1D78AA",
"z. c #1372B2",
"x. c #167BB2",
"c. c #1C7DB3",
"v. c #147BB8",
"b. c #1D7BB9",
"n. c #2172A4",
"m. c #217CAC",
"M. c #3072A5",
"N. c #217EB4",
"B. c #237DB8",
"V. c #44668B",
"C. c #45688E",
"Z. c #4B668C",
"A. c #456D97",
"S. c #4A6E94",
"D. c #526E92",
"F. c #54739A",
"G. c #407EAE",
"H. c #1D7FC0",
"J. c #1B80B4",
"K. c #1E83BC",
"L. c #2583B5",
"P. c #2B82B5",
"I. c #2483BA",
"U. c #2883B9",
"Y. c #2589BE",
"T. c #728AAA",
"R. c #1481C2",
"E. c #248EC7",
"W. c #2D8AC1",
"Q. c #238FC9",
"!. c #2493CC",
"~. c #3699CB",
"^. c #259FD8",
"/. c #279CD4",
"(. c #359FD1",
"). c #309ED9",
"_. c #22A0D3",
"`. c #25A0DC",
"'. c #30A9E0",
"]. c #3ABAF2",
"[. c #4AA8D9",
"{. c #40B0E5",
/* pixels */
"    @ $ @ O O O O 6 X.n.2.O.L.O.T } Y d j S  .` a 0 q f f f - 0 0 0 M M 0 0 k P J ` k k $.J 9 s s g k s s f h j ` ) 2 5 9 a k b ",
"    + $ $ @ # : y T N.m.}  .t.} V f S q q $.[ S ..P k J N = ; 3 8 ; - 2 0 f N ` &.k 9 S J / G F j k G F k n k k S h 2 5 3 5 9 d ",
"X + @ $ > < , x T 4.P.8.I C V f c G M 2 3 d S [ <.| <.o.6.{ s 3 2 3 3 2 q k Y { J k s F S F F / J / n f a s 9 a 1 s S 4 9 a a 9 ",
"+ + @ : < e x T *.U.1.f f q N Y f q f M k N J D D Y P S D 3.R Y P f f M f S D ` s d a k k / I...( k s s a 9 4 2 1 s k 5 9 s n S ",
"@ $ O > 7 t x T :.f 2 9 f 3 M 3 q M 9 2 q d 2 9 s S o.{ N N k l f k k a q a k S S k k n p.j.k n z.F a a 9 4 4 1 2 a h 9 4 a G A ",
"@ # : e u v C *.I = z r r y I Z M 2 q M 9 9 d a 3 f k Y k s z 3 s s d d s d J Y k k G ] | S a d S F a 5 4 4 4 j s 4 d a 9 k A A ",
"# : , t u e L X.x x L x z V N f 2 2 9 9 9 q q 2 9 0 q h W.J s 2 f s q 9 d S S S k k / { 4 d 9 a 5 F F i 1 1 9 b g 4 j b a a d d ",
": : 6 e r r T %.} C c z B d d f 4 9 2 4 a 9 2 4 q N s f.h.c.n 3 2 f 9 d k d j A / k ` f 4 d d a 9 j / F j 4 4 a a 4 b A a a 4 9 ",
": , y u y E E E C f k J J k d 1 4 2 d j d d 9 0 D D J :.3 P 5.2 k 9 f D d S S F J b / d 4 4 b a 9 1 A ^ G n 4 a 4 b F b i g a g ",
"r K *.:. .E z B Y S G M q a 4 9 a a d A j S k z N N q 9 d 2 M R S k S A j G D A G G ] q 4 a a G d 9 9 D j j / F b b ] n i i i 9 ",
"l 0.O.q - - 4 d 9 * * 1 * q g a 4 2 4 M `  .<.| N - 3 2 2 q 2 d S D J A S S A A ( [ F a j G j D 9 a 4 9 J F F $./ 1 b F b b 4 1 ",
"V L ; o 2 - q f 2 * 2 2 2 9 S 9 1 - * 9 k D N q 9 9 3 2 - 2 q 9 d M M H j ` p.@.[ [ a k J d ( j 9 q 4 4 a / g D / 4 g F g A g 1 ",
"k d & 2 M d 9 9 9 9 9 * * a A d k d j j j q D S 0 0 - - * 1 2 9 j M S J S K.^.v.>.9 4 k N j ` a a 4 2 4 a b G F ` F b A j j j i ",
"N & - 3 3 d q a a q 2 2 9 a a F J M J S S N N s q 9 2 9 9 4 9 2 M N d H u.J.h.5.J J f n k F d a d a 9 a d j b J / ( j 4 4 i j j ",
"q - & - 2 9 4 M 9 - 2 j a a k a * 1 q V D S k 9 q 9 9 q q 9 q 9 2 d [ K.p.` 9 - 2 a / h G A 2 a 9 4 a a d a A 3.^ D g 4 i a d F ",
"- o * * 9 d d - - 2 a A a 9 4 2 - f R k f V q q q 9 9 q 9 q d 9 9 D >.' ,.J 9 4 4 4 b F F k 4 a 9 a j j a 4 F L.H A g g a a d b ",
"* 2 q 2 9 d q - 9 2 9 4 4 & 3 B N :.{ 5 s B q a 9 d a 4 9 9 9 a A S 9 a J.a 9 4 4 a j +./ 4 a 9 4 9 j A d a 3.1.9 9 4 j F b a b ",
"d q - * o D j q 2 4 9 q 9 q P } R N <.Y / N 8 a q B S D A j d 9 * 4 9 5 ~.D - 4 9 d j +.G 2 9 9 4 4 9 A A H 5.S d 4 1 a b F a j ",
"o . - & 3 M 9 d 0 q z K C t V { J N S S J <.` ` J N M D q 3 2 & & 2 A J I.N 4 4 a d a ^ S 2 4 9 9 q a H ] j 3.S d d 4 4 j A a A ",
"o & j o a D M V z c z C c z c S ` N f n M d B M M d d f 2 4 2 2 a S ` ` x.S a d M j a b A 2 2 9 a d a M ` j 3.J d b b b F g a A ",
"; , y 8 { Y V C z L c C P K k N N 2 q D 3 9 q 9 9 2 - q 9 d k d k S H [ ,.` M G j a 4 a G 4 9 4 9 9 g J G k @./ a d 5.+.A F j g ",
"B r B 3 T I V L z z x c k k q 0 2 3 2 0 3 d S f 3 - - f k k d N k S D <.[ ' J A A d 9 b A g a 4 4 a d n k d J / A ] p.D a g a i ",
"L w y E g.I V c K L c f V 9 - = ; 2 9 M k s q M S N f S k N f M N J ^ 3.R H H F S j A ( b j j a 9 a a a j a ( i.( ^ F d a g a i ",
"E B L P.2.w l { T V c V k 9 2 3 ; 2 f S k d q S M S z N J N S f j D F g.| A ' ` F j ] ` g a g b j d a k a 4 s.5.A j 4 g g a 4 4 ",
"V Z Z E V 3 r K V V D n k 9 3 3 2 0 f f k k S S f N f N D d M N q j D p.' A >.D A D @.A g 9 j d d b j d a ^ +.a 4 1 4 9 g a 1 2 ",
"V 6 3 B B r q z B D k f f 9 9 3 0 q k q f f k f f f q N M M M M 9 N ^ ,.[ ` ] S J [ <.j 4 2 2 a ] <.( F u.` a a 1 9 4 2 * & % 1 ",
"y w 6 z z f l f z k q 0 s s q 2 2 q f q f k f V N s f n S S j d d J ` 5.,.@.J F >.@.d 2 & & * J f.S a j ` 4 4 4 1 4 % % % * 4 i ",
"V y q B y K q P q P f f 9 q s k N S j a N J J k N $.p.Y A A d M A M [ [ 3.^ ,.p.,.A 4 2 1 4 G [ S 2 1 a S a 4 4 1 & o & 1 4 a a ",
"V V 8 q 8 N q K N { f s N s k J D D S S D J M 0 0 N >.J J d j d a J 3.` [ F [ [ ,.a 4 1 9 j S j d 4 i F ^ d a a a % 1 4 1 a a a ",
"B Z 8 q q M f N D f q q N N N Y D T Y N f N P S P N S S d q q j ` 5.h.` A [ b / 3.1 a S k A j g j A F H j g i a a 1 d d b g i 4 ",
"D q q 0 q q f B f q 0 f d S N k S N k f N J f k J S N 9 d d A ` <.<.] ( ] G a s.N 4 A S a j k S / F g a a i i a d g d j ^ F a j ",
"D M 3 3 8 q q N 0 k 9 s d J J k k k N f P D Y J $.D S D S D J J S A F 3.x.k F s.k j G 9 9 d b G G A d a 4 i a g a j d j H b i g ",
"D 9 M - 3 q q j 9 k 2 s J f D S k s N S { { ` | ` N G J ` J J f a A n [ p.G &.<.S / a 4 h a S G b G d a 4 i g j d ^ H M F j g b ",
"' 0 - 0 9 d 0 q s k 2 S S 9 ) S f f S S N S k N k k d D D A D 9 A j J J n s.x.A +.Y s 4 a g F D G H g g i a j F S +.^ ^ H A A b ",
"<.- - - 0 f 3 4 0 k k k k q o.D K k f N S S k z f k A D A d b ^ H d @.d.$.E.c.$.G 2 5 4 5 a A b / A b A a g j b A +.[ ` H b a a ",
"J.- - - 9 f q 9 3 M f 9 f f { N U D S P S V N f k S j g j A F j A $.@.R.j.<.k G 4 2 * 2 9 a f d ] S F H a g g d b ] ] H j d a a ",
"!.N - 3 9 0 M f q k D 9 f k J k S S ) Y P f f s S / G N D G b F j.s.u.,.,.a a d n 2 1 2 p a h n [ b ] J g a 9 a a j ` b i g g b ",
"' 5.D q M 3 3 M f s S J f S S N k S ..S V k k K ..o.` S / z.R.^.j.5.o.#.` q G d h a 5 4 i g k n ( ( +.b g 4 4 i 9 a G b a b ^ ^ ",
"4 ' [ D q 5 0 s f f N k S S { f N ) { h k S J J S G A b U.]._.<.H d * n j f h G a k g i a j n b u.@./ b a i 4 4 a g F A i a j H ",
"d [ 5.<.M = q k f k N K f 3 Y ..S ) S S Y { ..[ 5.p.b.!.`.m.M 1 a S k 2 D 9 a S G g j b a k F +.v.+.D F a i i i j A ` b a 4 a b ",
"d S / { { 9 q U s k Y J P f ) g.Y S n { 6.a.5.p.6.p.^.x.<.D a 5 d d S 9 s s a n J F F F ^ ^ ( v.@.F ^ ^ g g i a b [ ( d g 1 a b ",
"M d D a d.M 9 f $.s k S f J } B.Y.1.{ 4.o.a.4.<.3.Y.{ 4 9 j b 2 d k d k 2 h s k / i.( +.@.#.&.f.[ D ( ( j i a g A F A b d 4 i b ",
"d 9 D / 3.x.) S k S 4 s Y J | 4.| p.a.3.o.S Y ` 3.J G a j S F / n 5 9 f n 1 S n b.3.F a i i n +.] / F b g 4 i a b b b d i 4 a F ",
"9 0 9 $.$.$.).$.s f U U S %.1.o.o.4...} P N G [ b f q a d j D J p./ q a n n n b.| 1 s 4 i 1 g +.` F F g 4 i 4 a j b j j a 4 a ^ ",
"9 5 k [ ` p.c.!.I.D j n Y d.1.$.4.%.{ S S [ o.S 4 2 2 4 4 1 4 5 a { / n b #.z.3.2 4 5 2 4 4 4 b F j n j 4 i i a b n n i 4 4 i g ",
"9 4 s ) $.o.( j.).[.W.B.U.$...U k { ) K $.@...S S 9 a s a 9 9 i a a n $.+.S j s s 5 4 a g i g g A d g a a g g g b F g 1 4 2 a b ",
"9 s k o.) G o.$.d.{.(.L.N.k K k k ) ..$.{ U k f f 9 4 9 9 5 g k k s 9 / 9 2 5 p k s h s g g j b F n a i a j b b F b 1 i g 4 g b ",
"q 9 ) ) ] K h ) a.a.W.4...k h / 3.i.o.....G D 2 & = 2 9 s a s s S n g k 2 1 4 F G n k i p h h n n g a a g g n n b g 4 g b a g d ",
"k s $.) m G U n ) ) i.k.i.%.k.k.o.Y ) n.d.G { ] G s % * p k k h n s p 2 i 5 p / / n j p 4 i h g F G p g n n g g g g g b g i g g ",
"$./ ) ..s U ) ) $.) ) ) k.q._ h 5 p c h h p ; 4 k [ ( h 4 1 4 n h 1 % 1 F p h n ..h h p 1 i s i n F g i i g n n b i F ^ g b g g ",
"d.{ k s h K o.X.l m m ) U 3 3 3 8 l c 5 p h h 3 % 5 D G / / n p h 1 1 4 ../ n c ] s s s i i h i i ^ d 2 1 i b F b i +.^ F b b g ",
") s k 5 s 4 K f ; p 5 m c 3 6 3 ; ; 3 3 5 s S S = % s j p h h p i = 1 k G / G f / j p h a h n g s b g i 4 i g ( g i +.+.( F b F ",
"0 2 h h 0 z G r r 5 p m m 8 p r 5 ; = = ; 2 4 U n % = 4 4 j 5 p i p h ) +.n p f / n 4 4 i i g b g g j h 4 4 b b i g ^ #.u.F g g ",
"5 3 3 c c U ..K l z c X.L c l 8 5 3 ; ; % ; 2 1 n c % 1 5 p h h i h b ( &./ F n / / i s p p i g b n n i 4 4 n n i b ( +.+.b g g ",
"q 0 5 s K P %.K ) z c w.m c 8 5 8 3 ; 5 5 2 2 2 1 ) K 3 1 3 g h p h ) +./ b / G k ) n s g b g h n G g i i p n i g ^ F +.F i b b ",
"f 9 5 l K Y %.T l r _ *.c c 6 5 l 3 3 5 5 5 6 p 5 0 ../ k p 4 p h n n ( g h n m b n F h i i g b n n j p 4 i g p g F F ( g g g g ",
"h c l c P ) T z 6 v q.W L 0 3 5 l 8 5 8 s 5 2 p h l k U U n 4 5 h n n U b p h h G h S F k a i g b b b i i b j 4 n ^ ( ) i g i g ",
"h ) k U c X.o.m m =.e.=.L r 5 r p 5 p s 0 5 5 l s p h n h h h p k n n G h p l h U n s n G F n b b b b g b g g g n G ( F h i i i ",
"Y %.U U L P K L v M.C.V.v 8 5 l p 8 s l 8 s p s p 5 p s h p p n n n U k n i l n n n h a n F j g n n g i b b i g n F +.n j a i p ",
"J o.o.l m %. .L ;.A.D.-.6 5 8 s 0 5 5 p 5 p s 5 5 5 3 5 p p p h n U n n k p l n k n k s k F n p g n i i g n a j n b ( F k g i g ",
"U ..%...T K K ! G.C.F.Q 6 8 5 l 0 0 0 f 3 5 s 5 5 p p 5 p 5 p p n n n n h p h h c h S n b n g p i g g g g g g a G b ( H j n h i ",
"f ) %.l X.} z 9.S.Z.7.v 5 r 3 s 5 5 0 f 3 ; s h c h l h p p p h h n U / n p h m s f U n h i g p i b b g g g g g H ^ ^ F j n g a ",
"f Y i.%.X.0 m A.T.A.Q x 8 r 3 l 5 6 5 f k 1 l h n m m h h l h h n n n / ) h p h h h n b p h g i i g b g g i g b H A +.H g j a a ",
"c ) 4.k.} V X.C.T.e.v l r l l f 5 3 9 s S s 5 h n n n k h h m h n h n m ) U p p h h n n h g g i i i g b a i g b b a ( +.b a g j "
};
