/* XPM */
static char *_9197895fdb84385acee1bd00873ae0cx4r0HuQFBIBVUZ0G[] = {
/* columns rows colors chars-per-pixel */
"64 64 234 2 ",
"   c None",
".  c #030405",
"X  c #0A1718",
"o  c #18241B",
"O  c #20221F",
"+  c #1A2B32",
"@  c #252F2D",
"#  c #2C403F",
"$  c #5F5B3E",
"%  c #162F43",
"&  c #1E3A49",
"*  c #273A47",
"=  c #313E46",
"-  c #2B434B",
";  c #3C474B",
":  c #284558",
">  c #3C4B52",
",  c #394B59",
"<  c #3B525D",
"1  c #3B5665",
"2  c #454B4B",
"3  c #444D55",
"4  c #45545B",
"5  c #4B555B",
"6  c #4B595C",
"7  c #485355",
"8  c #585D5B",
"9  c #4C5548",
"0  c #6A695B",
"q  c #77734D",
"w  c #4C5963",
"e  c #475965",
"r  c #535E63",
"t  c #545E6A",
"y  c #54646A",
"u  c #5A666B",
"i  c #5C696D",
"p  c #586364",
"a  c #4B6575",
"s  c #5D6B74",
"d  c #576775",
"f  c #5E717C",
"g  c #4E6064",
"h  c #636A6B",
"j  c #656869",
"k  c #6F7568",
"l  c #626D74",
"z  c #666E77",
"x  c #657272",
"c  c #65727B",
"v  c #6C757B",
"b  c #6B797C",
"n  c #6A7376",
"m  c #757B7B",
"M  c #837B55",
"N  c #A47D7E",
"B  c #76807F",
"V  c #8C8256",
"C  c #97977C",
"Z  c #8C8677",
"A  c #B0A37B",
"S  c #657985",
"D  c #6D7A83",
"F  c #677987",
"G  c #737D83",
"H  c #757E88",
"J  c #7A8384",
"K  c #76838C",
"L  c #798688",
"P  c #7D8B92",
"I  c #778996",
"U  c #7E929A",
"Y  c #6F8191",
"T  c #838B8C",
"R  c #84888A",
"E  c #8D938C",
"W  c #838D95",
"Q  c #818E9B",
"!  c #8C9494",
"~  c #83939B",
"^  c #8C959B",
"/  c #8C999C",
"(  c #879595",
")  c #939D9D",
"_  c #979A95",
"`  c #96978D",
"'  c #A98687",
"]  c #B78B8C",
"[  c #A99696",
"{  c #B7989A",
"}  c #B78F97",
"|  c #9FA18C",
" . c #9AA298",
".. c #A2A59C",
"X. c #A7A999",
"o. c #B1AD97",
"O. c #8C9CA4",
"+. c #8A9AA5",
"@. c #949DA4",
"#. c #949FAB",
"$. c #9E9DA2",
"%. c #829DB0",
"&. c #AF9DA5",
"*. c #9CA4A4",
"=. c #93A3AB",
"-. c #9BA5AC",
";. c #9DAAAC",
":. c #96A4A5",
">. c #9DACB3",
",. c #99A8B5",
"<. c #9EB2B3",
"1. c #9EB0BA",
"2. c #92A7AA",
"3. c #A2A7A3",
"4. c #A5ABA5",
"5. c #A3A5AB",
"6. c #A3ABAC",
"7. c #AAACAC",
"8. c #A9A9A4",
"9. c #B4ABAC",
"0. c #BCACAD",
"q. c #B8A5A5",
"w. c #ABB1AD",
"e. c #A8B1A9",
"r. c #B7B7AA",
"t. c #A3ADB3",
"y. c #ABAEB2",
"u. c #A4AEB9",
"i. c #A0A7B2",
"p. c #B5ADB1",
"a. c #BAAEB4",
"s. c #A5B2B5",
"d. c #ABB3B5",
"f. c #A6B4BA",
"g. c #ABB4BA",
"h. c #ADB9BC",
"j. c #A8BAB6",
"k. c #B2B4B5",
"l. c #BDB4B4",
"z. c #B3B5BB",
"x. c #B3BABC",
"c. c #BABCBD",
"v. c #BAB6B6",
"b. c #C99A9A",
"n. c #D69A9C",
"m. c #C0908E",
"M. c #C4A29C",
"N. c #DAAA9C",
"B. c #C5BA8F",
"V. c #EDAC9B",
"C. c #FDAC95",
"Z. c #F4AB9B",
"A. c #FEAC9A",
"S. c #F6A698",
"D. c #EDB29E",
"F. c #FEB39D",
"G. c #F4B49C",
"H. c #D39CA5",
"J. c #C5A8A6",
"K. c #DAA8A6",
"L. c #CBB2AC",
"P. c #C8B3AB",
"I. c #D2B4AC",
"U. c #DCB6AB",
"Y. c #C5AEB3",
"T. c #C5B7B7",
"R. c #D8B7B3",
"E. c #EAA8A5",
"W. c #FEADA2",
"Q. c #F8ADA8",
"!. c #E3B4A4",
"~. c #E9B6A9",
"^. c #FBB2AC",
"/. c #F5B6A7",
"(. c #E6B6B2",
"). c #B5C2BC",
"_. c #C7C9B9",
"`. c #D9D7BA",
"'. c #CECBB4",
"]. c #E8DAAB",
"[. c #E5DEB7",
"{. c #EDC5B9",
"}. c #EEE4B9",
"|. c #F6E8B8",
" X c #DACE9E",
".X c #ADBBC2",
"XX c #A8B7C3",
"oX c #B4BCC3",
"OX c #B9BEC3",
"+X c #B4BEC8",
"@X c #C7BCC2",
"#X c #AFC1C6",
"$X c #B4C3C4",
"%X c #BAC2C5",
"&X c #B5C3CB",
"*X c #B9C4CB",
"=X c #BCCACD",
"-X c #B8C9C5",
";X c #B8CAD3",
":X c #C4CCCE",
">X c #C4C8C5",
",X c #C8D1CE",
"<X c #D5D8C8",
"1X c #C2CDD5",
"2X c #C3D2D3",
"3X c #C9D3D3",
"4X c #CDDDDE",
"5X c #C8D5D9",
"6X c #D3DBD7",
"7X c #D4C1C5",
"8X c #FCEEC1",
"9X c #F3EDCC",
"0X c #F6EDC9",
"qX c #FDF2C5",
"wX c #FCF4CC",
"eX c #F8F4CB",
"rX c #EAEAD6",
"tX c #FCF5D5",
"yX c #F4F2DA",
"uX c #F9F5D9",
"iX c #F9FADC",
"pX c #F8F6D3",
"aX c #EAE9D3",
"sX c #C9DAE1",
"dX c #D4DDE3",
"fX c #D7E3E7",
"gX c #D5E6E9",
"hX c #FDFCE3",
"jX c #FFFFEC",
"kX c #F4F5E5",
"lX c #EBF8FC",
"zX c #F5FFFF",
"xX c #FBFDF8",
"cX c #E1EFF1",
/* pixels */
"                                                                                                                                ",
"                                                                                                                                ",
"                                                                                                                                ",
"                        g b J J L i 6                                                                                           ",
"                      L   2X4X4X4X    6                                                                                         ",
"                        =X-X=X).e.-X    r                                                       / <.j.>.L                       ",
"                      5.7.7.e.e.d.e.5.    4                                                   sX4X=X-X2XgXfX*.                  ",
"                  x.k.k.l.l.q.T.0.l.k.y.h.H                                                 dXg.s.d.y.7.7.d.x.>X                ",
"                  z.a.q.&.' N ' ' [ T.v.g.t.w                                             1Xt.z.a.a.Y.Y.Y.l.l.k.OX>             ",
"              -.k.9.&.J.b.b.n.K.m.] { 9.a.oXD ~                                           i.>X&.J.} ' ' ] { q.9.p.+.            ",
"            n x.y.p.J.J.K.E.^.^.E.n.] q.a.oX#.w y i n B T  .                            @Xi.oXq.] b.n.n.] ] { J.k.+Xw           ",
"          b L $Xy.0.Y.K.(.Q.Q.Q.^.E.b.q.p.y.+Xl $X=X2X5X=X-X-X$X-X-X:X6X6X          b ) a.@X} } n.E.^.^./.N.b.} OXg.Q           ",
"          u ;.h.w.0.P.(.^.Q.A.S.A.E.N.M.0.7.*X,.g.h.g.d.t.6.6.s.<.<.5.5.7.d.oX*X2X4X .;.7.q.J.H.E.Q.Q.Q.C.!.K.J.v.t.f.e         ",
"          u $X6.d.r.P.U.~.S.A.A.F.S.E.M.T.6.s.#Xh.h.z.d.y.d.j.h.s.j.x.x.z.k.g.t.s.2.j.x.7X{ H.H.S.S.S.S.C.C.!.'.p.u.XXd         ",
"        fXi ;.( 3.9.P.U.D.G.A.A.F.S.D.M.0.d.;.f.t.g.g.z.z.k.g.d.j.j.d.t.y.7.y.f.j.j.).4.8.I.(.n.Q.A.S.S.F.{.~.J.9.g.XXc W       ",
"        gXy U b E X.P.U.!.G.F.C.Z.D.U.M.q.c.f.s.h.g.y.y.d.d.d.d.6.j.d.d.g.g.g.f.j.<.<.x.Y.J.H.H.S.A.A.S.Z.D.!.I.p.y.XXF K       ",
"        lXi > 4 ^ 8.0.L.!.~.G.G.N.{.U.Z 0.7.g.f.f..X=.h.g.6.d.x.x.k.7.y.x.g.g..X.X;.x.z.! [ @Xb.Q.A.A.W.W.!.U.Y.0.5.@.z I       ",
"          =.Y ; T 5.T.q.P.~.!.N.I.J.{ 0 9.p.t.j.>.#Xs.<.oXd.;.7.8.z.c.d.t.s.t.>.s.t.g.z.$.z a.q./.S.Z.~.(.(.L.0.$.H -.D W       ",
"          lXgXc c oXz.l.q.q.I.I.P.l.9.m T.x.g.g.s.j.oXd.;.d.x.OXy.y.d.y.d.h.h.oX+X&Xy.y.y.t y.T.K.!.~.(.R.I.J.v.5.t F w         ",
"            zXP l t.@.^ [ >X[ 9.w.x.J R oXt.$Xg.h.g.6.d.x.x.y.*.oXg.t.g.g.z.t.@.:.g.OXy.a.v R p.q.L.I.P.J.a.p.z.i.w 3           ",
"              .X4 ,.~ s +.,.+.,.XXu.c ;X&X=.i 7 / j.6.).d.T g w D #.oXu.i.oXt.m ; j 5.d.x.@.h k.7.l.e.8.k.v.z.>.Q d             ",
"                  D I , F H F I 1.H F ;Xf.t.G ! 5.d.g.$Xl z 6 * % l i.XXy..XOX3._ T g.d.g.>., K s.h.>.).d.@.h.O.F               ",
"                      1 a %.& a Y F .X;X.Xs.^ J g.d.t.@.w f.S & & , H XX.Xy.7.) 3.4.x.s.h.XXS S 2.2.U #X~ p O.~ e               ",
"                      sXF a a a e F sXf.f./ ) O 2 x.&XD a ;X% : : & a ,.oXz.! 8 o R k.d.h.>.%.1 I Y 1 +.c - U                   ",
"                        cXd * ;Xa 1.5Xs.d.J n = X x.g.< Y U % : : & * +.XXOXr E @ 2 k.d.+X1.U F a * f P >                       ",
"                          lX4X=Xx 5X$XoXc.! @ . 8 d.>., & 1 : : : * % H g.oXj . . j z.y..X,.2.U < f 4                           ",
"                            xX` R 6X3.w.7.%XJ J ;..X+., & : : & & 1 + t s.OXz.R j p.oXy..X,.+.I d t                             ",
"                            xXm 3.,Xk.d.3.k.c.%Xg.h.=.> - - - - : = + s oXd.5.y.oX>Xi.y..X.X#.+.D W                             ",
"                              m e.>Xw.w.x.6.y.-.x.>.t.g @ - ; # # o @ ~ h.d.d.d.a.-.u.oXu.oXO.O.z                               ",
"                                _ ,X-.*.OXoXi.OX-.%X3XT 9 @ o o o > x <.x.s.oXt.g.i.+XoX5.+X^ W                                 ",
"                                v 5XoXt.XXf.#.g.t.d.! ).kX<X` 0 ).6X6X .6.d.d.f..Xg.XXu.f..X@.                                  ",
"                                r t.%Xt.t.g.*Xf.x.d.` kXaXo.'.C '.o.jXe.*.d.s.h.g.oXi.z.oX@.P                                   ",
"                                  3 t.*Xt.d.y.y.d.7.r.kXqXo.A B.A }.pXyX_ 4.d.g.h.1.#Xj.( ~                                     ",
"                                  *X5 K %XOXz.6.k.E ,XiX9XqX].B.}.eXtXuXo.w.g.f.f.#X~ I 2.L                                     ",
"                                  c ;.z j ) 5.-X,XE <XjXtXiXqX|.|.eXeXpXo.3.d.-./ O.@.~ b                                       ",
"                                  ( r   k.5 h h P ! ).yXaX}.qXqX|.|.eXrX..E / W O.c g 6 b                                       ",
"                                    G ^     $XK 8 2 k r. X[.]. X}.}.`._.R k n s > s @.4X                                        ",
"                                            zXlX5X6 p 0 $ B q V M q $ q 8 j b K w <.zX                                          ",
"                                              <.> g ).e.C [.}.}.[.B.Z X.3.k.d.&XO.b lX                                          ",
"                                            y y y / ).X.o.9XqXqXiX`.C r.k.d.+.>..X; fX                                          ",
"                                          t.h.+.y j.j.E '.pXwXqXeXpX| e.7.x.l ~ ;Xl T                                           ",
"                                          s.=.H Y j.j.| <XpXwXwXeXiX| o.k.x.v ~ &XK x                                           ",
"                                          z s * U #Xe.X.aXiXwXqXeXiXX.X.k..XG Q $X@.5                                           ",
"                                            =.u ,.).4.).pXpXqX|.eXpXr. .k.oXc Q &X>.7                                           ",
"                                            lXs #Xh. .-XiXtXqXqXeX9X'.` d.x.u #.;X>.r *.                                        ",
"                                            4Xs =Xh.) <XhXwXqX|.eXyX_.| v.;.s XX&X-.l T                                         ",
"                                            g.G ;Xg./ rXhX0XqX8XeXiX).| ).E c 1X.X,.b m                                         ",
"                                              P =Xg.) rXhX0XwX8X9XhXo.| c.b K sXf.1.n H                                         ",
"                                              #.&Xz._ <XjXuX0XtXpXkX[ 3.7.p *X1X>.f.D m                                         ",
"                                              -.OXy.w.v.jXkXuX9XjX<X_ _.6.5 XX+X>.-.5 ^                                         ",
"                                              x.=Xw.e._ <XkXjX9XrX..e.4.) v l +XXXW w                                           ",
"                                              oX%Xd.v....._.'.<X3...w.k.x.W w z D w W                                           ",
"                                            J *.:X6.j.w.....E E e.3.).%Xi.-.K w t 3                                             ",
"                                            *.J 4X*.s.s.,X).>X>X%X7.OX*.#.+X,.#.H z                                             ",
"                                              h ,X).-X;. .x P P J s.t.t.;Xu.+Xu.z Q                                             ",
"                                              p d.).;.).#X=.K 7 s m &Xf.g.,.XX#.3                                               ",
"                                               .J 2X;.#Xf.f.Q c t.u &X.Xf.,.+XK t                                               ",
"                                                8 ).j.s.-.;XI c f.u &Xt.XX.XoXw @.                                              ",
"                                                B :.s.$X.Xu.s O.gXw t.1.oXf.i.w dX                                              ",
"                                                  :.s.f.f.&XD O.1X4 f.s..Xg.i.3 OX                                              ",
"                                                  x.%Xg.s.;.b b 2X7 ! ) 5.y.g.G 7                                               ",
"                                                  z u G n 5 8 / cXi r 5 5 = 2 = 7 :X                                            ",
"                                                  v z J R ) 2XzX              z.x.                                              ",
"                                                                                                                                "
};
