/* XPM */
static char *result[] = {
/* columns rows colors chars-per-pixel */
"64 64 158 2 ",
"   c #010102",
".  c #070708",
"X  c #070808",
"o  c #0B0B0C",
"O  c #0F1112",
"+  c #131414",
"@  c #151719",
"#  c #171818",
"$  c #1B1C1C",
"%  c #2E1B1D",
"&  c #1D1F21",
"*  c #1E2123",
"=  c #222425",
"-  c #232629",
";  c #26292C",
":  c #292B2D",
">  c #38292B",
",  c #2B2E31",
"<  c #2E3236",
"1  c #2E3338",
"2  c #313437",
"3  c #323639",
"4  c #34393D",
"5  c #3A3B3C",
"6  c #582C2E",
"7  c #543335",
"8  c #593032",
"9  c #363B40",
"0  c #393E43",
"q  c #483F44",
"w  c #5D3D40",
"e  c #3D4146",
"r  c #3E444A",
"t  c #424242",
"y  c #41454A",
"u  c #45494E",
"i  c #4D4D4D",
"p  c #594346",
"a  c #5B494C",
"s  c #454C53",
"d  c #494E54",
"f  c #4B5056",
"g  c #4F545A",
"h  c #52565B",
"j  c #54595F",
"k  c #5F595F",
"l  c #555555",
"z  c #6A4949",
"x  c #7F494A",
"c  c #724D52",
"v  c #6F565D",
"b  c #65565B",
"n  c #75575D",
"m  c #555C63",
"M  c #575F68",
"N  c #595B63",
"B  c #605F67",
"V  c #795C61",
"C  c #5C6167",
"Z  c #576068",
"A  c #5C636A",
"S  c #5E6771",
"D  c #5E6871",
"F  c #646264",
"G  c #686267",
"H  c #60676D",
"J  c #6C6C6C",
"K  c #716F6F",
"L  c #786E6E",
"P  c #656C74",
"I  c #696F75",
"U  c #656F79",
"Y  c #697077",
"T  c #67717A",
"R  c #6B737B",
"E  c #747474",
"W  c #71777E",
"Q  c #71787F",
"!  c gray47",
"~  c #A43F3F",
"^  c #804F54",
"/  c #92595C",
"(  c #AD4344",
")  c #A4494B",
"_  c #A05C5D",
"`  c #AD5E5F",
"'  c #BD5A5B",
"]  c #965F62",
"[  c #816B6B",
"{  c #9A7171",
"}  c #AF6061",
"|  c #C34A4A",
" . c #C85858",
".. c #E85757",
"X. c #EB5858",
"o. c #FC5E5E",
"O. c #F35C5C",
"+. c #C16464",
"@. c #DB6565",
"#. c #FC6060",
"$. c #FD7070",
"%. c #FB7B7B",
"&. c #6B7580",
"*. c #6E7883",
"=. c #757C84",
"-. c #797F86",
";. c #727E89",
":. c #817F86",
">. c #7B8186",
",. c #76818C",
"<. c #7B838B",
"1. c #7A8691",
"2. c #7D8A96",
"3. c #7F8B98",
"4. c #818486",
"5. c #81868B",
"6. c #85898E",
"7. c #8D8D8D",
"8. c #818A93",
"9. c #898D92",
"0. c #828E9B",
"q. c #8C9094",
"w. c #83909D",
"e. c #8A939D",
"r. c #929395",
"t. c #939699",
"y. c #97989A",
"u. c #999A9B",
"i. c #8793A0",
"p. c #8B96A2",
"a. c #8E99A5",
"s. c #929BA5",
"d. c #989FA7",
"f. c #919DA9",
"g. c #96A1AC",
"h. c #99A3AD",
"j. c #9BA6B1",
"k. c #9EA9B4",
"l. c #A3A3A4",
"z. c #A1A6AC",
"x. c #A2A8AE",
"c. c #ACADAD",
"v. c #A1ACB7",
"b. c #A9ADB1",
"n. c #A2ADB8",
"m. c #B0B1B2",
"M. c #B1B5BA",
"N. c #B5B8BC",
"B. c #BBBCBD",
"V. c #FE8181",
"C. c #C1C1C2",
"Z. c #CCCCCC",
"A. c gray83",
"S. c #DCDCDC",
"D. c #E3E3E3",
"F. c #EEEEEE",
"G. c #F4F4F4",
"H. c None",
/* pixels */
"H.H.H.H.H.H.H.H.H.H.H.H.H.H.H.H.H.H.H.H.H.H.H.H.H.H.H.H.H.H.H.H.H.H.H.H.H.H.H.H.H.H.H.H.H.H.H.H.H.H.H.H.H.H.H.H.H.H.H.H.H.H.H.H.",
"H.H.H.H.H.H.H.H.H.H.H.H.H.H.H.H.H.H.H.H.H.H.H.H.H.H.H.H.H.H.H.H.H.H.H.H.H.H.H.H.H.H.H.H.H.H.H.H.H.H.H.H.H.H.H.H.H.H.H.H.H.H.H.H.",
"H.H.H.H.H.H.H.H.H.H.H.H.H.H.H.H.H.H.H.H.H.H.H.H.H.H.H.H.H.H.H.H.H.H.H.H.H.H.H.H.H.H.H.H.H.H.H.H.H.H.H.H.H.H.H.H.H.H.H.H.H.H.H.H.",
"H.H.H.H.H.H.H.H.H.H.H.H.H.H.H.H.H.H.H.H.H.H.H.H.H.H.H.H.H.H.H.H.H.H.H.H.H.H.H.H.H.H.H.H.H.H.H.H.H.H.H.H.H.H.H.H.H.H.H.H.H.H.H.H.",
"H.H.H.H.H.H.H.H.H.H.H.H.H.H.H.H.H.H.H.H.H.H.H.H.H.H.H.H.H.H.H.H.H.H.H.H.H.H.H.H.H.H.H.H.H.H.H.H.H.H.H.H.H.H.H.H.H.H.H.H.H.H.H.H.",
"H.H.H.H.H.H.H.H.H.H.H.H.H.H.H.H.H.H.H.  g 8.a.1.m r + H.H.H.H.H.H.H.H.H.H.H.H.H.H.H.H.H.H.H.H.H.H.H.H.H.H.H.H.H.H.H.H.H.H.H.H.H.",
"H.H.H.H.H.H.H.H.H.H.H.H.H.H.H.H.H.H.- M 3.p.a.g.j.j.w.o H.H.H.      H.H.H.o r m <.e.=.$ H.H.H.H.H.H.H.H.H.H.H.H.H.H.H.H.H.H.H.H.",
"H.H.H.H.H.H.H.H.H.H.H.H.H.H.H.H.H.d w.w.w.0.0.3.i.0.f.d + g 8.h.n.f.>.u X <.n.n.n.n.n.a.f X H.H.H.H.H.H.H.H.H.H.H.H.H.H.H.H.H.H.",
"H.H.H.H.H.H.H.H.H.H.H.H.H.H.H.H.0 w.w.w.2.q ] V ;.0.0.R s.n.n.v.n.n.n.n.s.P k.k.n.n.n.n.n.8.o H.H.H.H.H.H.H.H.H.H.H.H.H.H.H.H.H.",
"H.H.H.H.H.H.H.H.H.H.H.H.H.H.H.. ;.w.w.w.V ' V.V._ 1.0.i.v.n.f.W Q e.n.n.n.9.P =.a x C n.n.n.H H.H.H.H.H.H.H.H.H.H.H.H.H.H.H.H.H.",
"H.H.H.H.H.H.H.H.H.H.H.H.H.H.H.X s w.3.P ..$.V.V.V.B w.a.n.a.=.v.n.e.g.n.n.n.n.n.g.} +.:.n.n.s.O H.H.H.H.H.H.H.H.H.H.H.H.H.H.H.H.",
"H.H.H.H.H.H.H.H.H.H.H.H.H.H.H.H.U w.w.V ~ O.%.V.} ;.0.w.v.8.n.n.n.n.n.n.n.n.n.e.k.] %._ n.n.P   H.H.H.H.H.H.H.H.H.H.H.H.H.H.H.H.",
"H.H.H.H.H.H.H.H.H.H.H.H.H.H.H.  3.3.i.Z x o.#.O.G 0.i.w.v.v.n.<.q.>.j.n.n.n.=.e.n.) @.7 n.n.f.  H.H.H.H.H.H.H.H.H.H.H.H.H.H.H.H.",
"H.H.H.H.H.H.H.H.H.H.H.H.H.H.H.  &.w.3.i.V ( #.( 3.0.w.p.n.n.>.A.F.G.5.n.n.h.r.r.G X. .<.n.n.v.X H.H.H.H.H.H.H.H.H.H.H.H.H.H.H.H.",
"H.H.H.H.H.H.H.H.H.H.H.H.H.H.H.H.+ 3.w.w.1.m ( c w.w.w.f.n.f.b.D.G.G.S.<.n.=.S.G.{ | p k.n.n.g H.H.H.H.H.H.H.H.H.H.H.H.H.H.H.H.H.",
"H.H.H.H.H.H.H.H.H.H.H.H.H.H.H.H.H.M 3.w.w.3.;.3.w.w.w.f.n.>.D.7.! G.G.5.n.h i D.B.N n.n.n.h.X H.H.H.H.H.H.H.H.H.H.H.H.H.H.H.H.H.",
"H.H.H.H.H.H.H.H.H.H.H.H.H.H.H.H.H.@ d 0.0.w.w.w.w.w.w.f.n.9.D.l i D.G.9.v.4 = C.Z.e.n.n.8.C H.H.H.H.H.H.H.H.H.H.H.H.H.H.H.H.H.H.",
"H.H.H.H.H.H.H.H.H.H.H.H.H.H.H.H.H.H.  s 1.3.w.w.w.w.w.i.n.9.D.l.i G.G.5.f     u.c.j.v.k.= o H.H.H.H.H.H.H.H.H.H.H.H.H.H.H.H.H.H.",
"H.H.H.H.H.H.H.H.H.H.H.H.H.H.H.H.H.H.H.H.* $ S 2.w.w.w.w.j.<.D.F.G.G.F.Q   = E = Y I e < H.H.H.H.H.H.H.H.H.H.H.H.H.H.H.H.H.H.H.H.",
"H.H.H.H.H.H.H.H.H.H.H.H.H.H.H.H.H.H.H.H.H.H.  S w.w.w.w.i.;.u.r.y.u.>.>.  t ! y C n.g H.H.H.H.H.H.H.H.H.H.H.H.H.H.H.H.H.H.H.H.H.",
"H.H.H.H.H.H.H.H.H.H.H.H.H.H.H.H.H.H.H.H.H.H.r 0.w.w.w.w.i.a.j.n.n.n.n.Y   7 Q F = k.n.e H.H.H.H.H.H.H.H.H.H.H.H.H.H.H.H.H.H.H.H.",
"H.H.H.H.H.H.H.H.H.H.H.H.H.H.H.H.H.H.H.H.H.  ;.i.w.w.w.p.v.n.n.n.n.n.n.Y   : Q F o n.n.<.  H.H.H.H.H.H.H.H.H.H.H.H.H.H.H.H.H.H.H.",
"H.H.H.H.H.H.H.H.H.H.H.H.H.H.H.H.H.H.H.H.H.& i.0.w.w.w.x.n.n.n.n.n.n.n.>.    J i   h.n.s.  H.H.H.H.H.H.H.H.H.H.H.H.H.H.H.H.H.H.H.",
"H.H.H.H.H.H.H.H.H.H.H.H.H.H.H.H.H.H.H.H.H.; w.w.w.w.i.n.v.e.n.n.n.n.k.g.    X .   h.n.h.+ H.H.H.H.H.H.H.H.H.H.H.H.H.H.H.H.H.H.H.",
"H.H.H.H.H.H.H.H.H.H.H.H.H.H.H.H.H.H.H.H.H.= 1.i.3.i.i.k.R % 9.-.,.e.g.h.$         n.n.w.  H.H.H.H.H.H.H.H.H.H.H.H.H.H.H.H.H.H.H.",
"H.H.H.H.H.H.H.H.H.H.H.H.H.H.H.H.H.H.H.H.H.H.d 0.i.3.3.f.p.;.> z L L K K 5       = n.n.-.H.H.H.H.H.H.H.H.H.H.H.H.H.H.H.H.H.H.H.H.",
"H.H.H.H.H.H.H.H.H.H.H.H.H.H.H.H.H.H.H.H.H.H.& 3.i.3.i.3.a.j.k.;.b 7 8 8 8 +     A n.h.- H.H.H.H.H.H.H.H.H.H.H.H.H.H.H.H.H.H.H.H.",
"H.H.H.H.H.H.H.H.H.H.H.H.H.H.H.H.H.H.H.H.H.H.H.e 3.i.3.i.w.w.p.f.g.>.<.<.=.A 3 g v.8.3 H.H.H.H.H.H.H.H.H.H.H.H.H.H.H.H.H.H.H.H.H.",
"H.H.H.H.H.H.H.H.H.H.H.H.H.H.H.H.H.H.H.H.H.H.H.H.9 ;.&.w.w.w.3.i.w.a.h.h.k.n.n.k.m   H.H.H.H.H.H.H.H.H.H.H.H.H.H.H.H.H.H.H.H.H.H.",
"H.H.H.H.H.H.H.H.H.H.H.H.H.H.H.H.H.H.H.H.H.H.H.H.H.o X 1 M U U &.w.a.n.n.n.w.N $ H.H.H.H.H.H.H.H.H.H.H.H.H.H.H.H.H.H.H.H.H.H.H.H.",
"H.H.H.H.H.H.H.H.H.H.H.H.H.H.H.H.H.H.H.H.H.H.H.H.H.H.H.H.. 0 g m P U R P +   H.H.H.H.H.H.H.H.H.H.H.H.H.H.H.H.H.H.H.H.H.H.H.H.H.H.",
"H.H.H.H.H.H.H.H.H.H.H.H.H.H.H.H.H.H.H.H.H.H.H.H.H.H.H.1 ,.p.j.j.N.A.A.B.e.0 H.H.H.H.H.H.H.H.H.H.H.H.H.H.H.H.H.H.H.H.H.H.H.H.H.H.",
"H.H.H.H.H.H.H.H.H.H.H.H.H.H.H.H.H.H.H.H.H.H.H.H.H.H.d 0.g.n.k.C.F.F.F.F.C.e.y H.H.H.H.H.H.H.H.H.H.H.H.H.H.H.H.H.H.H.H.H.H.H.H.H.",
"H.H.H.H.H.H.H.H.H.H.H.H.H.H.H.H.H.H.H.H.H.H.H.H.H.s 0.j.n.n.h.F.F.F.F.F.F.=.v.: H.H.H.H.H.H.H.H.H.H.H.H.H.H.H.H.H.H.H.H.H.H.H.H.",
"H.H.H.H.H.H.H.H.H.H.H.H.H.H.H.H.H.H.H.H.H.H.H.H.; w.h.n.n.n.M.F.F.S.Z.Z.F.>.j.w.. H.H.H.H.H.H.H.H.H.H.H.H.H.H.H.H.H.H.H.H.H.H.H.",
"H.H.H.H.H.H.H.H.H.H.H.H.H.H.H.H.H.H.H.H.H.H.H.. ;.f.n.j.8.n.N.F.F.S.S.F.F.S.! n.0 H.H.H.H.H.H.H.H.H.H.H.H.H.H.H.H.H.H.H.H.H.H.H.",
"H.H.H.H.H.H.H.H.H.H.H.H.H.H.H.H.H.H.H.H.H.H.H.3 0.j.n.A g.n.N.F.F.F.F.F.F.F.Z.8.<.H.H.H.H.H.H.H.H.H.H.H.H.H.H.H.H.H.H.H.H.H.H.H.",
"H.H.H.H.H.H.H.H.H.H.H.H.H.H.H.H.H.H.H.H.H.H.H.D p.n.&.&.h.j.Z.F.F.F.F.F.F.F.F.6.v.+ H.H.H.H.H.H.H.H.H.H.H.H.H.H.H.H.H.H.H.H.H.H.",
"H.H.H.H.H.H.H.H.H.H.H.H.H.H.H.H.H.H.H.H.H.H.. 3.g.n.< 0.k.s.F.F.F.F.F.F.F.F.F.l.v.3 H.H.H.H.H.H.H.H.H.H.H.H.H.H.H.H.H.H.H.H.H.H.",
"H.H.H.H.H.H.H.H.H.H.H.H.H.H.H.H.H.H.H.H.H.H.* w.j.8.1 0.v.h.F.F.F.F.F.F.F.F.F.Z.e.f H.H.H.H.H.H.H.H.H.H.H.H.H.H.H.H.H.H.H.H.H.H.",
"H.H.H.H.H.H.H.H.H.H.H.H.H.H.H.H.H.H.H.H.H.H.1 0.k.m s 0.j.v.F.F.F.F.F.F.F.F.F.D.-.A H.H.H.H.H.H.H.H.H.H.H.H.H.H.H.H.H.H.H.H.H.H.",
"H.H.H.H.H.H.H.H.H.H.H.H.H.H.H.H.H.H.H.H.H.H.9 i.k.3 j 0.h.h.F.F.F.F.F.F.F.F.F.F.Q P H.H.H.H.H.H.H.H.H.H.H.H.H.H.H.H.H.H.H.H.H.H.",
"H.H.H.H.H.H.H.H.H.H.H.H.H.H.H.H.H.H.H.H.H.H.0 0.j.& m w.f.d.F.F.F.F.F.F.F.F.F.D.-.P H.H.H.H.H.H.H.H.H.H.H.H.H.H.H.H.H.H.H.H.H.H.",
"H.H.H.H.H.H.H.H.H.H.H.H.H.H.H.H.H.H.H.H.H.H.9 w.j.< r 0.p.g.S.F.F.F.F.F.F.F.F.C.0.A H.H.H.H.H.H.H.H.H.H.H.H.H.H.H.H.H.H.H.H.H.H.",
"H.H.H.H.H.H.H.H.H.H.H.H.H.H.H.H.H.H.H.H.H.. ;.0.j.n.a.P w.j.B.F.F.G.F.F.F.F.F.y.g.f.X H.H.H.H.H.H.H.H.H.H.H.H.H.H.H.H.H.H.H.H.H.",
"H.H.H.H.H.H.H.H.H.H.H.H.H.H.H.H.H.H.H.H.H.1 i.0.h.n.P $ r 0.d.F.F.F.F.F.F.F.F.W v.n., H.H.H.H.H.H.H.H.H.H.H.H.H.H.H.H.H.H.H.H.H.",
"H.H.H.H.H.H.H.H.H.H.H.H.H.H.H.H.H.H.H.H.H.s 0.w.g.1., $ $ f a.b.F.F.F.F.F.F.m.q.n.n.< H.H.H.H.H.H.H.H.H.H.H.H.H.H.H.H.H.H.H.H.H.",
"H.H.H.H.H.H.H.H.H.H.H.H.H.H.H.H.H.H.H.H.H.r w.w.<.P X , < &.w.w.z.S.F.F.F.m.f $ P h.o H.H.H.H.H.H.H.H.H.H.H.H.H.H.H.H.H.H.H.H.H.",
"H.H.H.H.H.H.H.H.H.H.H.H.H.H.H.H.H.H.H.H.H.- ;.Z . $ $ A 0.w.w.h.h.P h d.s.a.-.# @ : H.H.H.H.H.H.H.H.H.H.H.H.H.H.H.H.H.H.H.H.H.H.",
"H.H.H.H.H.H.H.H.H.H.H.H.H.H.H.H.H.H.H.H.H.H.      X $ $ 2.0.h.w.+ H.* a.n.n.P + O   H.H.H.H.H.H.H.H.H.H.H.H.H.H.H.H.H.H.H.H.H.H.",
"H.H.H.H.H.H.H.H.H.H.H.H.H.H.H.H.H.H.H.H.H.H.        X + 2.a.k.* H.H.  2.n.n.u H.H.H.H.H.H.H.H.H.H.H.H.H.H.H.H.H.H.H.H.H.H.H.H.H.",
"H.H.H.H.H.H.H.H.H.H.H.H.H.H.H.H.H.H.H.H.H.H.H.      , <.0.j.P H.H.H.H.*.h.n.* H.  $ : , $   H.H.H.H.H.H.H.H.H.H.H.H.H.H.H.H.H.H.",
"H.H.H.H.H.H.H.H.H.H.H.H.H.H.H.H.H.H.H.H.H.H.H.H.H.H.f w.i.n.: H.H.H.H.,.a.j.j <.j.n.n.n.n.s.e H.H.H.H.H.H.H.H.H.H.H.H.H.H.H.H.H.",
"H.H.H.H.H.H.H.H.H.H.H.H.H.H.H.H.H.H.H.H.H.H.H.H.H.  r S U P   H.H.H.+ 0.i.n.n.n.n.n.n.n.s.W 5 X H.H.H.H.H.H.H.H.H.H.H.H.H.H.H.H.",
"H.H.H.H.H.H.H.H.H.H.H.H.H.H.H.H.H.H.H.H.H.H.H.. s 1.f.n.n.n.;.= H.H.< w.i.n.n.n.n.n.n.R $ # $ +   H.H.H.H.H.H.H.H.H.H.H.H.H.H.H.",
"H.H.H.H.H.H.H.H.H.H.H.H.H.H.H.H.H.H.H.H.H.H.X U w.w.v.k.n.k.n.k.3 H.@ d S <.g.v.n.n.v.y $ $ # o   H.H.H.H.H.H.H.H.H.H.H.H.H.H.H.",
"H.H.H.H.H.H.H.H.H.H.H.H.H.H.H.H.H.H.H.H.H.H.* ; 4 4 = @ ; d N 3 d . H.H.H.H.  + = - ; +     H.H.H.H.H.H.H.H.H.H.H.H.H.H.H.H.H.H.",
"H.H.H.H.H.H.H.H.H.H.H.H.H.H.H.H.H.H.H.H.H.H.        $ % $ $ # $ $ . H.H.H.H.H.H.H.H.H.H.H.H.H.H.H.H.H.H.H.H.H.H.H.H.H.H.H.H.H.H.",
"H.H.H.H.H.H.H.H.H.H.H.H.H.H.H.H.H.H.H.H.H.H.        o $ # # + o . H.H.H.H.H.H.H.H.H.H.H.H.H.H.H.H.H.H.H.H.H.H.H.H.H.H.H.H.H.H.H.",
"H.H.H.H.H.H.H.H.H.H.H.H.H.H.H.H.H.H.H.H.H.H.H.H.H.H.H.H.H.H.H.H.H.H.H.H.H.H.H.H.H.H.H.H.H.H.H.H.H.H.H.H.H.H.H.H.H.H.H.H.H.H.H.H.",
"H.H.H.H.H.H.H.H.H.H.H.H.H.H.H.H.H.H.H.H.H.H.H.H.H.H.H.H.H.H.H.H.H.H.H.H.H.H.H.H.H.H.H.H.H.H.H.H.H.H.H.H.H.H.H.H.H.H.H.H.H.H.H.H.",
"H.H.H.H.H.H.H.H.H.H.H.H.H.H.H.H.H.H.H.H.H.H.H.H.H.H.H.H.H.H.H.H.H.H.H.H.H.H.H.H.H.H.H.H.H.H.H.H.H.H.H.H.H.H.H.H.H.H.H.H.H.H.H.H.",
"H.H.H.H.H.H.H.H.H.H.H.H.H.H.H.H.H.H.H.H.H.H.H.H.H.H.H.H.H.H.H.H.H.H.H.H.H.H.H.H.H.H.H.H.H.H.H.H.H.H.H.H.H.H.H.H.H.H.H.H.H.H.H.H.",
"H.H.H.H.H.H.H.H.H.H.H.H.H.H.H.H.H.H.H.H.H.H.H.H.H.H.H.H.H.H.H.H.H.H.H.H.H.H.H.H.H.H.H.H.H.H.H.H.H.H.H.H.H.H.H.H.H.H.H.H.H.H.H.H."
};
