/* XPM */
static char *result[] = {
/* columns rows colors chars-per-pixel */
"60 60 256 2 ",
"   c #04101B",
".  c #032229",
"X  c #162E35",
"o  c #30373F",
"O  c #15191E",
"+  c #790518",
"@  c #72040F",
"#  c #5B1828",
"$  c #6F2B2E",
"%  c #601415",
"&  c #4D700C",
"*  c #6D7212",
"=  c #765132",
"-  c #517C21",
";  c #6D702A",
":  c #7D5A18",
">  c #273845",
",  c #2D4952",
"<  c #3A5B65",
"1  c #555455",
"2  c #547068",
"3  c #6A6D6E",
"4  c #4D5C5E",
"5  c #92120E",
"6  c #AC0200",
"7  c #A70800",
"8  c #B60A01",
"9  c #AA1904",
"0  c #B71703",
"q  c #AF1517",
"w  c #932B0F",
"e  c #A92404",
"r  c #A82917",
"t  c #B62917",
"y  c #B93010",
"u  c #B01C25",
"i  c #873921",
"p  c #993C29",
"a  c #993B33",
"s  c #9B2E2A",
"d  c #A52927",
"f  c #A33826",
"g  c #B73B34",
"h  c #B1312E",
"j  c #9F1723",
"k  c #C71809",
"l  c #C61818",
"z  c #D91715",
"x  c #D00C0E",
"c  c #C82509",
"v  c #C62815",
"b  c #D33215",
"n  c #EB301E",
"m  c #C53627",
"M  c #D3322B",
"N  c #EC362E",
"B  c #D31A1F",
"V  c #926B0C",
"C  c #8C4932",
"Z  c #B84738",
"A  c #AE4830",
"S  c #906F2C",
"D  c #B06D30",
"F  c #9E5311",
"G  c #C7421B",
"H  c #D7523A",
"J  c #CF4D30",
"K  c #F24B35",
"L  c #F6583A",
"P  c #E74E31",
"I  c #D76A3E",
"U  c #E96239",
"Y  c #AB3B4B",
"T  c #D43947",
"R  c #F23D42",
"E  c #964C4A",
"W  c #BB5949",
"Q  c #AE504B",
"!  c #BB685A",
"~  c #B36E50",
"^  c #B87875",
"/  c #B06F68",
"(  c #A16468",
")  c #DA5945",
"_  c #CD5653",
"`  c #FA484C",
"'  c #E45948",
"]  c #FA584A",
"[  c #EB5051",
"{  c #C66248",
"}  c #DB6647",
"|  c #C96658",
" . c #D86956",
".. c #DA745A",
"X. c #CC7850",
"o. c #E7674A",
"O. c #F76746",
"+. c #E86B58",
"@. c #F66755",
"#. c #E67657",
"$. c #FB775A",
"%. c #F2774B",
"&. c #EC5A60",
"*. c #C77669",
"=. c #DA7568",
"-. c #D57877",
";. c #CC6C6D",
":. c #FE6A64",
">. c #E87768",
",. c #F97967",
"<. c #F57174",
"1. c #D65961",
"2. c #398510",
"3. c #3F993F",
"4. c #4F8B08",
"5. c #6C8C18",
"6. c #72A717",
"7. c #5A8A26",
"8. c #569231",
"9. c #669938",
"0. c #6A8E2C",
"q. c #52A22D",
"w. c #78B738",
"e. c #77B128",
"r. c #54A01A",
"t. c #6AD21C",
"y. c #77CB37",
"u. c #76CC2D",
"i. c #7EE534",
"p. c #579643",
"a. c #50A94F",
"s. c #7AB846",
"d. c #77A952",
"f. c #719E58",
"g. c #79CB4E",
"h. c #7AC96F",
"j. c #8D9013",
"k. c #8E932B",
"l. c #A98836",
"z. c #8EB133",
"x. c #BAB232",
"c. c #97A317",
"v. c #86CB3C",
"b. c #85DA35",
"n. c #99DA3A",
"m. c #94CA30",
"M. c #9AE83A",
"N. c #8CEB38",
"B. c #AEE83C",
"V. c #A5D02E",
"C. c #AE9049",
"Z. c #90B44A",
"A. c #AAB656",
"S. c #B18776",
"D. c #92B16D",
"F. c #BBB16C",
"G. c #D48C52",
"H. c #F6845A",
"J. c #EF835A",
"K. c #C8A75C",
"L. c #CB8778",
"P. c #D28871",
"I. c #E98669",
"U. c #FA856A",
"Y. c #F7956A",
"T. c #E78878",
"R. c #FE8C7C",
"E. c #F98875",
"W. c #E79777",
"Q. c #FD9577",
"!. c #E69668",
"~. c #CFAD6C",
"^. c #FDA376",
"/. c #EDAC76",
"(. c #88C847",
"). c #97CA48",
"_. c #9AD846",
"`. c #84D752",
"'. c #98D156",
"]. c #91CD53",
"[. c #A5D946",
"{. c #A7D855",
"}. c #AFD14D",
"|. c #92EA4B",
" X c #A6E448",
".X c #ADE453",
"XX c #91D16D",
"oX c #AFD571",
"OX c #B5EE70",
"+X c #9BED65",
"@X c #CCC575",
"#X c #C1C15F",
"$X c #EF7586",
"%X c #B49791",
"&X c #9BB887",
"*X c #92AEB0",
"=X c #9FAD9E",
"-X c #C88A87",
";X c #D6908D",
":X c #E69B87",
">X c #FD9885",
",X c #F28F8B",
"<X c #D3A598",
"1X c #FCA787",
"2X c #E8A698",
"3X c #FBAB95",
"4X c #F9B698",
"5X c #F0AA8B",
"6X c #CFB1AF",
"7X c #F7B7A6",
"8X c #F2ADB1",
"9X c #E599AA",
"0X c #AED48B",
"qX c #B7E486",
"wX c #B4F491",
"eX c #B7C7B5",
"rX c #A1DC99",
"tX c #C2D582",
"yX c #FACE98",
"uX c #C6F792",
"iX c #F8CCB1",
"pX c #D2F5AD",
"aX c #E5FDB9",
"sX c #FDF2B5",
"dX c #CDD0B6",
"fX c #BBB7D2",
"gX c #F8BED6",
"hX c #B1D5D7",
"jX c #CDD0CA",
"kX c #FACBC7",
"lX c #FDD7CC",
"zX c #EBDBD4",
"xX c #FFDCDC",
"cX c #FFDCD2",
"vX c #EEC9D1",
"bX c #D8F4CB",
"nX c #E6FFCA",
"mX c #FCE2DB",
"MX c #E8FDDA",
"NX c #F2FFD8",
"BX c #EDEECF",
"VX c #F4D6EA",
"CX c #DAF1F3",
"ZX c #E6E8EA",
"AX c #FDE6E6",
"SX c #ECF4E9",
"DX c #F5FFEB",
"FX c #F8F9E9",
"GX c #FBECF5",
"HX c #EAF7F8",
"JX c #F2FDFC",
"KX c #FEFDFD",
"LX c #F9FBF4",
"PX c #E8E9F8",
"IX c #DBCFE3",
"UX c None",
/* pixels */
"UXUXUXUXUXUXUXUXUXUXUXUXUXUXUXUXUXUXUXUXUXUXUXUXUXUXUXUXUXUXUXUXUXUXUXUXUXUXUXUXUXUXUXUXUXUXUXUXUXUXUXUXUXUXUXUXUXUXUXUX",
"UXUXUXUXUXUXUXUXUXUXUXUXUXUXUXUXUXUXUXUXUXUXUXUXUXUXUXUXUXUXUXUXUXUXUXUXLXDXLXUXUXUXUXUXUXUXUXUXUXUXUXUXUXUXUXUXUXUXUXUX",
"UXUXUXUXUXUXUXUXUXUXUXUXUXUXUXUXUXUXUXUXUXUXUXUXUXUXUXUXUXUXUXUXLXDXMXnXaXaXpXNXDXUXUXUXUXUXUXUXUXUXUXUXUXUXUXUXUXUXUXUX",
"UXUXUXUXUXUXUXUXUXUXUXUXUXUXUXUXUXUXUXUXUXUXUXUXUXUXUXUXUXUXUXDXbXuXqXZ.z.Z.d.0XDXUXUXUXUXUXUXUXUXUXUXUXUXUXUXUXUXUXUXUX",
"UXUXUXUXUXUXUXUXUXUXUXUXUXUXUXUXUXUXUXUXUXUXUXUXJXJXUXUXUXUXNXaXwX`.`.v.m.e.w.qXMXJXUXUXUXUXUXUXUXUXUXUXUXUXUXUXUXUXUXUX",
"UXUXUXUXUXUXUXUXUXUXUXUXUXUXUXUXUXUXUXUXUXUXUXDXdXjXbXNXUXnXpXoX`.u.b.b.i.y.(.XXrXMXJXUXUXUXUXUXUXUXUXUXUXUXUXUXUXUXUXUX",
"UXUXUXUXUXUXUXUXUXUXUXUXUXUXUXUXUXUXUXUXUXUXUXDX&Xf.D.pXsXpXoX). XM.M.|.y.g.h.q.d.rXpXSXUXUXUXUXUXUXUXUXUXUXUXUXUXUXUXUX",
"UXUXUXUXUXUXUXUXUXUXUXUXUXUXUXUXUXUXUXUXUXDXNXMXrXp.7.XXuXOX{.[.B.B.n.(.s.XXwXs.8.8.XXMXUXUXUXUXUXUXUXUXUXUXUXUXUXUXUXUX",
"UXUXUXUXUXUXUXUXUXUXUXUXUXUXUXUXUXFXFXSXnXnXnXUXUXwX7.w.].+Xn. XB.B.[.Z.XXUXUXd.9.7.7.UXUXUXUXUXUXUXUXUXUXUXUXUXUXUXUXUX",
"UXUXUXUXUXUXUXUXUXUXUXUXUXUXFXnXNXaXpXuXqX0XOXqXuXUXwX2.y.`.|. X[.m.Z.oXUXUXUXrX8.& & UXUXUXUXUXUXUXUXUXUXUXUXUXUXUXUXUX",
"UXUXUXUXUXUXUXUXUXUXUXUXLXDXBXaXoXOX{.{.'.'.'.'.XXOXpX+Xr.`.`.+X_.[.wXUXUXUXbXrXp.- 8.bXUXUXUXUXUXUXUXUXUXUXUXUXUXUXUXUX",
"UXUXUXUXUXUXUXUXUXUXUXUXMX=XD.XX).)._.[.[.{.{.{.'.s.].wX2.g.g.+X'.{.OXwXXXXXh.h.p.p.rXbXUXUXUXUXUXUXUXUXUXUXUXUXUXUXUXUX",
"UXUXUXUXUXUXUXUXUXUXUXUXbX&XD.Z._._. Xn.B.}..X.X].'.(.g.r.g.g.`.m.{.{.].g.h.g.q.3.a.hXUXUXUXUXUXUXUXUXUXUXUXUXUXUXUXUXUX",
"UXUXUXUXUXUXUXUXUXUXUXUXFXpX0XZ.).n. X X.X.X}.}.).{.).e.r.g.+Xu.M.M..X X_.`.d.0.p.&XDXUXUXUXUXUXUXUXUXUXUXUXUXUXUXUXUXUX",
"UXUXUXUXUXUXUXUXUXUXUXUXUXnXqX].(.(.v.[.n.z.z.c.z.z.e.e.2.6.i.i.N.b.b.c.j.* V D ~ 2XmXLXKXUXUXUXUXUXUXUXUXUXUXUXUXUXUXUX",
"UXUXUXUXUXUXUXUXUXUXUXUXUXUXNXsXoX).w.k.j.* * * * 4.6.6.m.t.r.t.t.t.N.V.x.c.V F #.+.E.8XAXUXUXUXUXUXUXUXUXUXUXUXUXUXUXUX",
"UXUXUXUXUXUXUXUXUXUXUXUXUXUXBXsX!.C.A.k.C.~ ~ l.k.n.n.{.[.6.6.e.u.b.M.V.V.}.{.C.K.Y.H.X.*.lXUXUXUXUXUXUXUXUXUXUXUXUXUXUX",
"UXUXUXUXUXUXUXUXUXUXUXUXFXFXiX/ W.K.A.A.yX1X4X~.}.[.[..XA.j.k.j.).m.n.M.M.n._.oXK.!.Y.H. .:XkXUXUXUXUXUXUXUXUXUXUXUXUXUX",
"UXUXUXUXUXUXUXUXUXUXUXUXxX2XL.~.F.A.0.Z.BXsXyXoXOXb.b..Xz.D K.l.j.}.M.M.M.M. X}.F.~.^.Y.,.>.:XmXUXUXUXUXUXUXUXUXUXUXUXUX",
"UXUXUXUXUXUXUXUXUXUXUXUX^ L.2X~.D.s.5.; oXtXtXA.v.b.b.).l.G.Y.I D k.V.B.N.N.M.m.}.#X/.J.>XR.I.T.UXUXUXUXUXUXUXUXUXUXUXUX",
"UXUXUXUXUXUXUXUXUXUXUXUX^ :XW.yXXXq.q.7.9.s.].'.u.y.b.j.D I.U.>.!.V j.x.N.N.M.b.{.oX/.P.1XQ. .{ -XUXUXUXUXUXUXUXUXUXUXUX",
"UXUXUXUXUXUXUXUXUXUXUX7X| T.5XsXrX2.2.7.7.7.9.Z.r.z.e.* ~ Y.>.,.^.J D x.m.N.|.i.m.A.5X:X>XI.#.U.! UXUXUXUXUXUXUXUXUXUXUX",
"UXUXUXUXUXUXUXUXUXUX2X-.=.1X^.~.OX8.& 7.; ; - 7.5.5.S D G.W...>.O.U J D c._.|.t.u.Z./.3X:XW.Y.1X;.7XUXUXUXUXUXUXUXUXUXUX",
"UXUXUXUXUXUXUXUXUXUX;X>XR.I.1X/.~.@XS S S ; ; ; * C D #.Y.Y. .$.P L b f S z.g.i.y.Z.~.5XT.1XW.!.>.-.UXUXUXUXUXUXUXUXUXUX",
"UXUXUXUXUXUXUXUXUXUX*...,.E.!.yX^.G.~ W.i $ = = $ i r @.+.^.o.O.M t r C C ; Z.s.g.z.A.!.R.>X*.5X=.-.7XUXUXUXUXUXUXUXUXUX",
"UXUXUXUXUXUXUXUXUXUXT.U.>X4X1X^.^.^.Q.a A -X8XiXiXS.s m O.$.L $.m r ;.9XiXdXf.9.0.C.C.D >.E.1X1X..W 7XUXUXUXUXUXUXUXUXUX",
"UXUXUXUXUXUXUXUXUXiXR.>.,.U.Y.G.H.o.g j ;XxXGXGXxXvX;XA O.Y.%.P r -.kXmXVXLXeX0X: S S I +.,.R.>.R...2XUXUXUXUXUXUXUXUXUX",
"UXUXUXUXUXUXUXUXUX;XT.R.>XE.1X3X} H 5 ;XxXLXAXGXPXPXvX^ H U L v ~ lXAXGXGXKXLXBXC.% i Y.+.>X1.,.>XI.2XUXUXUXUXUXUXUXUXUX",
"UXUXUXUXUXUXUXUXUXL.X.E.>X#.I.#.I. .E xXLXLXFXHXCXCXZX6XW H H p <XFXzXGXJXPXJXKXcXp w ^.%.Q.:.,.$.I./ UXUXUXUXUXUXUXUXUX",
"UXUXUXUXUXUXUXUXUXT.=.I.Q.Q.Q.R.,.s ;XAXDXJXJXJXCXCXZXgX*.>.| Q zXZXHXKXHXJXJXGXGX;Xr o.o.$.3Xo.H.!.~ UXUXUXUXUXUXUXUXUX",
"UXUXUXUXUXUXUXUXUX7XI.E.U.U.>.>.[ j VXKXLXDXSXZXCXPXVXVX;X! E <XGXPXLXLXZXZXKXGXGXkXp t L %.1XI Y.Y.L.UXUXUXUXUXUXUXUXUX",
"UXUXUXUXUXUXUXUXUX2XX.R.>X>X.._ T T xXLXLXLXzX3 X fXVXgX8X^ E 6XZXJXFXzX1 o ZXKXKXAXs 9 U O.H.Y.Y.!.iXUXUXUXUXUXUXUXUXUX",
"UXUXUXUXUXUXUXUXUX5XQ.@.:.E.>X| 1.| lXAXFXeXp.*X*X> VXgX9X^ ( <XzXZX6X( fX3 3 HXFXmXW q 3Xo.Q.U.#.W.4XUXUXUXUXUXUXUXUXUX",
"UXUXUXUXUXUXUXUXUX2X>.&.@.,.E.=.| Q xXAXBX3 .   .   IXVX6X/ ( <XeXbX1     X X CXSXlXW g I.} Q.) I.X.2XUXUXUXUXUXUXUXUXUX",
"UXUXUXUXUXUXUXUXUXUXE.} ,.' R.>X_ $XkXzXCX, . . X X fXfX=X^ ! -XjXhX>   .   > GXSXzX*.Q ..R.U.' R.Q iXUXUXUXUXUXUXUXUXUX",
"UXUXUXUXUXUXUXUXUXUXI.+.E.' ' >.1.;.8XvXdX=X4 X > < jXeX^ -. ./ fXhX< < < , 3 VXiX9X*.J  .:.P @.R.*.UXUXUXUXUXUXUXUXUXUX",
"UXUXUXUXUXUXUXUXUXUXP.>.o.@.H @.<.$X<.$X9X6X3 2 2 =XjX^ _ $X:.Z %XeX*X4 2 1 8X9X,X&.@.@.@.m m $.T.2XUXUXUXUXUXUXUXUXUXUX",
"UXUXUXUXUXUXUXUXUXUXUXW  .H O.@.E.<.<.&.1.$X-X^ %X%X*.;.<.,X:.' a -X%X6X( ;X$XR &.:.:.E.$.) ,XJ ! UXUXUXUXUXUXUXUXUXUXUX",
"UXUXUXUXUXUXUXUXUXUXUXUX3Xo.,.$.o.>XE.,.[ M B T T 1.1.,X1XU.$.$.` R g Q Y g M N &.+.J.H.#.,.3Xg L.UXUXUXUXUXUXUXUXUXUXUX",
"UXUXUXUXUXUXUXUXUXUXUXUXP.#.$.Y.G.^.} >XK N z B R $X,XE.>XR.E.O.` R M v r q x N U.I H.^.J.} o.<.7XUXUXUXUXUXUXUXUXUXUXUX",
"UXUXUXUXUXUXUXUXUXUXUXUX! Y.o.U #.^.U U L b 9 t g | T.W.<.,.:.&.` N h r w w 0 b Y.I U U U J.J.X.UXUXUXUXUXUXUXUXUXUXUXUX",
"UXUXUXUXUXUXUXUXUXUXUXUXUXC J $.H.U U L K c t { Q ~ ( E E Q g g _ 1.| W ..g 9 v P U P P G G D P.UXUXUXUXUXUXUXUXUXUXUXUX",
"UXUXUXUXUXUXUXUXUXUXUXUXUXUXW.) ` z z n x k m Z L.<XjXcXmXmXxXxXzXvXgX9X;.d l z c c b c v 4XD UXUXUXUXUXUXUXUXUXUXUXUXUX",
"UXUXUXUXUXUXUXUXUXUXUXUXUXUXUX=.` N z N x x l j C ( 6XAXLXKXGXKXLXjX;X( Y q B 6 0 P n 6 y >.UXUXUXUXUXUXUXUXUXUXUXUXUXUX",
"UXUXUXUXUXUXUXUXUXUXUXUXUXUXUX*. .R.P ] l l B q 5 @ % % # $ $ $ # # + + d u l l v 1XN M C S.UXUXUXUXUXUXUXUXUXUXUXUXUXUX",
"UXUXUXUXUXUXUXUXUXUXUXUXUXUXUXUX{ ..J E.M 0 M ` 5 j s Q ;.-.( Y + + j q u M q 8 0 M t t W UXUXUXUXUXUXUXUXUXUXUXUXUXUXUX",
"UXUXUXUXUXUXUXUXUXUXUXUXUXUXUXUXUX#.%.P 0 L U.P m h Y Q 1.>.-.I.>.w 6 l v ,.K 8 0 0 J _ UXUXUXUXUXUXUXUXUXUXUXUXUXUXUXUX",
"UXUXUXUXUXUXUXUXUXUXUXUXUXUXUXUXUXA J J c G O.L P m r m +.E.R.<.J y v k 0 L k 0 9 J r UXUXUXUXUXUXUXUXUXUXUXUXUXUXUXUXUX",
"UXUXUXUXUXUXUXUXUXUXUXUXUXUXUXUXUXUXUX..J c n O.c e y A e J M M h e 0 6 k z 0 9 Q.W.UXUXUXUXUXUXUXUXUXUXUXUXUXUXUXUXUXUX",
"UXUXUXUXUXUXUXUXUXUXUXUXUXUXUXUXUXUXUX| ' 8 b n c 9 G e y q l B e v b 6 6 8 7 g UXUXUXUXUXUXUXUXUXUXUXUXUXUXUXUXUXUXUXUX",
"UXUXUXUXUXUXUXUXUXUXUXUXUXUXUXUXUXUXUXUXZ g 3XP O.y 1Xb c 6 6 8 9 O.P 0 7 ] $.p UXUXUXUXUXUXUXUXUXUXUXUXUXUXUXUXUXUXUXUX",
"UXUXUXUXUXUXUXUXUXUXUXUXUXUXUXUXUXUXUXUXUXa J H U.c P M N v E.8 8 L c 0 7 3Xp UXUXUXUXUXUXUXUXUXUXUXUXUXUXUXUXUXUXUXUXUX",
"UXUXUXUXUXUXUXUXUXUXUXUXUXUXUXUXUXUXUXUXUXUXQ { m m v K c 0 U.0 6 k 9 5 A p UXUXUXUXUXUXUXUXUXUXUXUXUXUXUXUXUXUXUXUXUXUX",
"UXUXUXUXUXUXUXUXUXUXUXUXUXUXUXUXUXUXUXUXUXUXUXQ <.' l 7 7 9 9 e 0 J 9 w i UXUXUXUXUXUXUXUXUXUXUXUXUXUXUXUXUXUXUXUXUXUXUX",
"UXUXUXUXUXUXUXUXUXUXUXUXUXUXUXUXUXUXUXUXUXUXUXUX;.=.t g ] e @ e 9 U.w Q UXUXUXUXUXUXUXUXUXUXUXUXUXUXUXUXUXUXUXUXUXUXUXUX",
"UXUXUXUXUXUXUXUXUXUXUXUXUXUXUXUXUXUXUXUXUXUXUXUXUX;.s 5 E.A 5 w p A UXUXUXUXUXUXUXUXUXUXUXUXUXUXUXUXUXUXUXUXUXUXUXUXUXUX",
"UXUXUXUXUXUXUXUXUXUXUXUXUXUXUXUXUXUXUXUXUXUXUXUXUXUXUX*.C i i C UXUXUXUXUXUXUXUXUXUXUXUXUXUXUXUXUXUXUXUXUXUXUXUXUXUXUXUX",
"UXUXUXUXUXUXUXUXUXUXUXUXUXUXUXUXUXUXUXUXUXUXUXUXUXUXUXUXUXUXUXUXUXUXUXUXUXUXUXUXUXUXUXUXUXUXUXUXUXUXUXUXUXUXUXUXUXUXUXUX",
"UXUXUXUXUXUXUXUXUXUXUXUXUXUXUXUXUXUXUXUXUXUXUXUXUXUXUXUXUXUXUXUXUXUXUXUXUXUXUXUXUXUXUXUXUXUXUXUXUXUXUXUXUXUXUXUXUXUXUXUX",
"UXUXUXUXUXUXUXUXUXUXUXUXUXUXUXUXUXUXUXUXUXUXUXUXUXUXUXUXUXUXUXUXUXUXUXUXUXUXUXUXUXUXUXUXUXUXUXUXUXUXUXUXUXUXUXUXUXUXUXUX"
};
