/* XPM */
static char *result[] = {
/* columns rows colors chars-per-pixel */
"50 40 198 2 ",
"   c #030303",
".  c #0C0505",
"X  c #0C0C0C",
"o  c #090709",
"O  c #150404",
"+  c #140A0A",
"@  c #1C0F0F",
"#  c #0A150B",
"$  c #0B1A0C",
"%  c #101010",
"&  c #1E1011",
"*  c #240303",
"=  c #2C0304",
"-  c #2B0A0B",
";  c #360708",
":  c #320B0B",
">  c #3B080A",
",  c #391D08",
"<  c #3F0F10",
"1  c #241212",
"2  c #381414",
"3  c #0C2B0C",
"4  c #082808",
"5  c #0B350B",
"6  c #0C390C",
"7  c #193E07",
"8  c #102810",
"9  c #352609",
"0  c #263D06",
"q  c #2C330C",
"w  c #373708",
"e  c #333A07",
"r  c #430405",
"t  c #430809",
"y  c #4B0A0B",
"u  c #4C0608",
"i  c #540505",
"p  c #5A0606",
"a  c #570708",
"s  c #560C0D",
"d  c #5B0C0C",
"f  c #580A06",
"g  c #4A1D09",
"h  c #56170A",
"j  c #4E1213",
"k  c #660405",
"l  c #6B0506",
"z  c #620709",
"x  c #6B0B09",
"c  c #720506",
"v  c #730608",
"b  c #7C0C0C",
"n  c #790708",
"m  c #681407",
"M  c #771706",
"N  c #631011",
"B  c #6F1A1A",
"V  c #40210B",
"C  c #542407",
"Z  c #5D230A",
"A  c #463106",
"S  c #6E2107",
"D  c #452627",
"F  c #502021",
"G  c #0C420D",
"H  c #0B4C0B",
"J  c #074308",
"K  c #1F4007",
"L  c #075808",
"P  c #095A0A",
"I  c #095808",
"U  c #1F5607",
"Y  c #284207",
"T  c #205006",
"R  c #076707",
"E  c #0A630A",
"W  c #076E08",
"Q  c #0A6A0A",
"!  c #07630A",
"~  c #067406",
"^  c #067A06",
"/  c #067109",
"(  c #097309",
")  c #087E09",
"_  c #097806",
"`  c #17720A",
"'  c gray28",
"]  c #4C4D4D",
"[  c #5B4445",
"{  c #505050",
"}  c #5F6160",
"|  c #626464",
" . c #6E706F",
".. c #727574",
"X. c #850507",
"o. c #8C0405",
"O. c #880806",
"+. c #870608",
"@. c #83090A",
"#. c #8F080A",
"$. c #860F06",
"%. c #940506",
"&. c #9C0506",
"*. c #9C0A09",
"=. c #940908",
"-. c #811006",
";. c #A50506",
":. c #AB0505",
">. c #A60708",
",. c #A30A0B",
"<. c #AA080A",
"1. c #B40505",
"2. c #BC0506",
"3. c #B40A09",
"4. c #BA0C0B",
"5. c #B70907",
"6. c #A61D1F",
"7. c #B81D1E",
"8. c #B51919",
"9. c #992223",
"0. c #893234",
"q. c #A72728",
"w. c #B22F2F",
"e. c #A73738",
"r. c #B63434",
"t. c #C40304",
"y. c #CC0203",
"u. c #C70708",
"i. c #C60908",
"p. c #D30304",
"a. c #DB0404",
"s. c #DE0C05",
"d. c #D30A0B",
"f. c #D20D04",
"g. c #C3190C",
"h. c #DF1B0B",
"j. c #C31415",
"k. c #C81011",
"l. c #C71F1F",
"z. c #D21A1A",
"x. c #DB1617",
"c. c #E30304",
"v. c #EC0404",
"b. c #E60806",
"n. c #ED0A06",
"m. c #E10708",
"M. c #E20E08",
"N. c #F30303",
"B. c #FD0202",
"V. c #F40904",
"C. c #E71408",
"Z. c #F01004",
"A. c #DA250C",
"S. c #D7220A",
"D. c #D63D0E",
"F. c #D53D10",
"G. c #E3210C",
"H. c #C23F3F",
"J. c #815151",
"K. c #9A5152",
"L. c #A14748",
"P. c #AE4E4E",
"I. c #B8494A",
"U. c #A84F50",
"Y. c #AB5757",
"T. c #B75D5D",
"R. c #9C6464",
"E. c #A47070",
"W. c #B77172",
"Q. c #C35F60",
"!. c #CD6262",
"~. c #D76567",
"^. c #058A06",
"/. c #078409",
"(. c #068708",
"). c #039404",
"_. c #039B03",
"`. c #B48C8C",
"'. c #B89898",
"]. c #B09999",
"[. c #A7AAAA",
"{. c #BAA8A9",
"}. c #B6B6B6",
"|. c #C19F9F",
" X c #C5AFAF",
".X c #C2B4B4",
"XX c #C4B9B9",
"oX c #C6C5C4",
"OX c #D3CDCD",
"+X c #D9DCDB",
"@X c #DFE3E3",
"#X c #EBEFEF",
"$X c #E5E6E6",
"%X c #ECF1F0",
"&X c #F5FAF9",
"*X c #FFFFFF",
"=X c #F1F5F5",
"-X c None",
/* pixels */
"-X-X-X-X-X-X-X-X-X-X-X-X-X-X-X-X-X-X-X-X-X-X-X-X-X-X-X-X-X-X-X-X-X-X-X-X-X-X-X-X-X-X-X-X-X-X-X-X-X-X",
"-X-X-X-X-X-X-X-X-X-X-X-X-X-X-X-X-X-X-X-X-X-X-X-X-X-X-X6 E G -X-X-X-X-X-X-X-X-X-X-X-X-X-X-X-X-X-X-X-X",
"-X-X-X-X-X-X-X-X-X-X-X-X-X-X-X-X-X-X-X-X-X-X-X-X-X-X-X( _.R # -X-X-X-X-X-X-X-X-X-X-X-X-X-X-X-X-X-X-X",
"-X-X-X-X-X-X-X-X-X-X-X-X-X-X-X-X-X-X-X-X-X-X-X-X-X-X6 ).) 3 -X-X-X-X-X-X-X-X-X-X-X-X-X-X-X-X-X-X-X-X",
"-X-X-X-X-X-X-X-X-X-X-X-X-X-X-X-X-X-X-X-Xo 3 H H -X-XJ ^.5 # 6 H G $ -X-X-X-X-X-X-X-X-X-X-X-X-X-X-X-X",
"-X-X-X-X-X-X-X-X-X-X-X-X-X-X-X-X-X-X-X6 8 # 4 E /.R L W J ( ) L 4 $ 3 -X-X-X-X-X-X-X-X-X-X-X-X-X-X-X",
"-X-X-X-X-X-X-X-X-X-X-X-X-X-X-X5 L W ( E Q ( ^ ^ (._.).).)._.(.^ ( W P P ( Q H -X-X-X-X-X-X-X-X-X-X-X",
"-X-X-X-X-X-X-X-X-X-X-X-X-X-X# 5 0 7 ! ^.^.~ L R /._.).~ / ).).( R ) ^./.I 0 0 5 # -X-X-X-X-X-X-X-X-X",
"-X-X-X-X-X-X-X-X-X-X-X-X-X-X- o.:.q Q 0 h n 9 (._.( e x M A U _ ! , C U R Z 2.l -X-X-X-X-X-X-X-X-X-X",
"-X-X-X-X-X-X-X-X-X-X-X-X-X-X<.B.*.g =.p.N.5.` (.Y $.p.B.N.v.t.-.w q ;.t.M g u.N.n -X-X-X-X-X-X-X-X-X",
"-X-X-X-X-X-X-X-X-X-X-X-X-Xx N.B.c.v.B.B.B.S Q C t.v.B.B.B.B.B.N.p.o.&.B.N.p.v.B.a.y -X-X-X-X-X-X-X-X",
"-X-X-X-X-X-X-X-X-X-X-X-X-X3.B.B.B.B.B.B.V.m h X.i r 1.B.B.%.k ;.n.B.N.B.B.B.B.B.B.@.-X-X-X-X-X-X-X-X",
"-X-X-X-X-X-X-X-X-X-X-X-X> a.B.N.N.B.B.B.B.<.z k o.:.a.B.B.:.l r l c.B.B.B.B.V.N.B.:.-X-X-X-X-X-X-X-X",
"-X-X-X-X-X-X-X-X-X-X-X-Xu b.B.f.v.B.B.B.V.t.3.e.P.8.B.B.N.k.e.6.X.%.B.B.B.B.s.s.B.4.-X-X-X-X-X-X-X-X",
"-X-X-X-X-X-XX -X-X-X-X-Xu b.B.v.B.B.B.B.B.N.e.+X=X{.k.N.w.{.#XoXq.p.N.B.B.B.V.v.B.2.-X-X-X-X-X-X-X-X",
"-X-X-X-X-X-X-X-X-X-X-X-X> a.B.B.B.B.B.B.B.c.`.*X*X=XP.8.XX*X*X&XK.N.B.B.B.B.B.B.B.:.-X-X-X-X-X-X-X-X",
"-X-X-X-X-X-X-X-X-X-X-X-X-X2.B.B.B.B.V.S.B.a.|.*X}.[.W.Y.+XoX&X=XL.B.n.S.N.B.B.B.B.O.-X-X-X-X-X-X-X-X",
"-X% -X-X-X-X-X-X-X-X-X-X-X#.B.B.B.B.Z.D.B.v.W.%X{ ] } ]. .' $XOX7.B.n.D.B.B.B.B.v.p -X-X-X-X-X-X-X-X",
"-X-X-X-X-X-X-X-X-X-X-X-X-Xa v.B.N.B.B.b.2.m.l. X..[ 6.'.} | $XY.v.B.B.V.B.B.N.B.2.- -X-X-X-X-X-X-X-X",
"-X% -X-X-X-X-X-XX -X-X-X-X-X:.Z.h.B.B.u.@.p.B.z.H.z.N.I..X.XT.m.a.t.B.B.B.B.A.n.v -X-X-X-X-X-X-X-X-X",
"-X-X-X-X-X-X# X -X-X-X-X-X-Xz C.G.B.B.B.a.,.p.B.B.B.B.N.x.x.N.N.#.d a.B.B.N.A.1.* -X-X-X-X-X-X-X-X-X",
"-X-X-X-X-X-X-X-Xo -X-X-X-X-X. &.B.B.B.B.B.v.*.v :.p.c.c.c.y.;.i * 1.N.B.B.N.y.z     o -X-X-X-X-X-X-X",
"-X-X-X-X-X-X-Xo       -X.     ; y.B.B.B.B.B.a.*   O * * * O     f M.B.B.N.a.%.- -X    o -X-X-X-X-X-X",
"-X-X-X-X-X-X-X-X-X          -X-Xz b.B.B.B.N.p.y 1 1 @ @ .     r g.C.B.v.p.:.t -X-X-X    -X-X-X-X-X-X",
"-X-X-X-X-X-X-X-X-X-X-X-X-X-X-X-X-Xv c.B.B.v.>.0.Q.Q.!.~.U.F k a.B.N.c.y.1.i -X-X-X-X      -X-X-X-X-X",
"-X-X-X-X-X-X-X-X-X-X-X-X-X-X-X-X-X-Xn a.B.B.B.d.8.w.r.w.7.d.V.B.v.p.y.1.a -X-X-X-X-X-X    -X-X-X-X-X",
"-X-X-X-X-X-X-X-X-X-X-X-X-X-X-X-X-X-X-Xx t.c.n.V.B.N.N.N.N.N.c.y.y.y.:.a -X-X-X-X-X-X-Xo   -X-X-X-X-X",
"-X-X-X-X-X-X-X-X-X-X-X-X-X-X-X-X-X-X-X-Xa :.y.g.a.a.a.a.p.y.i.g.t.&.t -X-X-X-X-X-X-X-X-X  -X-X-X-X-X",
"-X-X-X-X-X-X-X-X-X-X-X-X-X-X-X-X-X-X-X-X-X; X.2.p.y.y.y.y.y.y.1.v -X-X-X-X-X-X-X-X-X-X-X-X-X-X-X-X-X",
"-X-X-X-X-X-X-X-X-X-X-X-X-X-X-X-X-X-X-X-X-X-X+ r o.1.t.t.t.:.n = -X-X-X-X-X-X-X-X-X-X-X-X-X-X-X-X-X-X",
"-X-X-X-X-X-X-X-X-X-X-X-X-X-X-X-X-X-X-X-X-X-X-X  . r p k i ;     -X-X-X-X-X-X-X-X-X-X-X-X-X-X-X-X% -X",
"-X-X-X-X-X-X-X-X-X-X-X-X-X-X-X-X-X-X-X-X-X-X-X    -X-X-X-X-X    -X-X-X-X-X-X-X-X-X-X-X-X-X-X-X-X% -X",
"-X-X-X-X-X-X-X-X-X-X-X-X-X-X-X-X-X-X-X-X-X-X-X    -X-X-X-X-X    -X-X-X-X-X-X-X-X-X-X-X-X-X-X-X-X-X-X",
"-X-X-X-X-X-X-X-X-X-X-X-X-X-X-X-X-X-X-X-X-X-Xy .   -X-X-X-X+   O : -X-X-X-X-X-X-X-X-X-X-X-X-X-X-X-X-X",
"-X-X-X-X-X-X-X-X-X-X-X-X-X-X-X-X-Xs @.b j 2 *.X.v 4.N -X*.:.k #.N -Xj b x : -X-X-X-X-X-X-X-X-X-X-X-X",
"-X-X-X-X-X-X-X-X-X-X-X-X-X-X-X-X-X-X-X-X<.d.V.B.B.4.t -Xb n.B.V.a.3.,.-X-X-X-X-X-X-X-X-X-X-X-X-X-X-X",
"-X-X-X-X-X-X-X-X-X-X-X-X-X-X% -X-X-X-X-X-X4.v.d.9.D -X-X-XB i.n.m.,.-X-X-X-X-X-X-X-X-X-X-X-X-X-X-X-X",
"-X-X-X-X-X-X-X-X-X-X-X-X-X-XX -X-X-X-X-X-X-Xs 2 -X-X-X-X-X-X1 N N -X-X-X-X-X-X-X-X-X-X-X-X-X-X-X-X-X",
"-X-X-X-X-X-X-X-X-X-X-X-X-X-X-X-X-X-X-X-X-X-X-X-X-X-X-X-X-X-X-X-X-X-X-X-X-X-X-X-X-X-X-X-X-X-X-X-X-X-X",
"-X-X-X-X-X-X-X-X-X-X-X-X-X-X-X-X-X-X-X-X-X-X-X-X-X-X-X-X-X-X-X-X-X-X-X-X-X-X-X-X-X-X-X-X-X-X-X-X-X-X"
};
